<svg version="1.1" id="Layer_1" xmlns="http://www.w3.org/2000/svg" xmlns:xlink="http://www.w3.org/1999/xlink" x="0px" y="0px"
	 width="100%" viewBox="0 0 4500 4500" enable-background="new 0 0 4500 4500" xml:space="preserve">
<path fill="#000000" opacity="1.000000" stroke="none" 
	d="
M1956.000000,4504.000000 
	C1304.072021,4504.000000 654.144043,4504.000000 4.108035,4504.000000 
	C4.108035,3004.238281 4.108035,1504.476440 4.108035,4.357347 
	C1503.595459,4.357347 3003.191162,4.357347 4503.393555,4.357347 
	C4503.393555,1503.999756 4503.393555,3003.999756 4503.393555,4504.000000 
	C3655.141602,4504.000000 2806.570801,4504.000000 1956.000000,4504.000000 
M2775.879639,2047.538330 
	C2759.524170,2050.068359 2743.110596,2052.277588 2726.830811,2055.224854 
	C2712.492920,2057.820312 2698.298096,2061.139648 2683.585205,2060.713135 
	C2679.600342,2060.597656 2675.041748,2059.590088 2671.724121,2061.116211 
	C2662.702881,2065.266602 2653.405518,2063.629395 2644.190674,2064.037598 
	C2637.544189,2064.332031 2630.896240,2064.588379 2620.934814,2064.015137 
	C2608.430908,2062.657715 2595.921143,2061.350098 2583.424561,2059.928223 
	C2572.255127,2058.657715 2560.786133,2058.426514 2550.042236,2055.534912 
	C2542.100586,2053.397705 2534.420166,2053.034912 2526.478271,2052.743164 
	C2520.533691,2052.524414 2514.614502,2051.676514 2508.670654,2051.348633 
	C2502.734131,2051.021240 2496.781006,2050.870605 2490.835205,2050.866699 
	C2484.854736,2050.862793 2478.869629,2051.038574 2472.894775,2051.311279 
	C2465.663574,2051.640869 2458.331055,2051.503418 2451.233643,2052.700195 
	C2419.897705,2057.985107 2388.563721,2063.335938 2357.384033,2069.452637 
	C2349.229248,2071.052490 2340.036133,2071.367432 2332.877686,2078.907715 
	C2332.656738,2083.594971 2331.178711,2089.158691 2332.386719,2094.060303 
	C2336.362305,2110.189697 2337.259033,2126.623291 2339.133057,2143.003662 
	C2342.140869,2169.289307 2346.547119,2195.411377 2349.888428,2221.663330 
	C2352.398682,2241.384766 2355.135498,2261.157471 2356.020020,2280.985352 
	C2357.147461,2306.255859 2357.059082,2331.619385 2356.405762,2356.914551 
	C2356.065918,2370.078857 2353.580078,2383.211670 2351.625732,2396.293213 
	C2351.156006,2399.437500 2349.201416,2402.477539 2347.486816,2405.296631 
	C2342.304688,2413.816406 2337.048340,2422.298340 2331.561279,2430.623779 
	C2319.135986,2449.475830 2306.586914,2468.246582 2294.027588,2487.010010 
	C2281.458496,2505.787842 2268.880127,2524.560303 2256.170654,2543.243408 
	C2251.581543,2549.989502 2248.037354,2557.121338 2248.093262,2565.373047 
	C2248.169434,2576.656982 2248.630371,2587.945801 2249.208984,2599.218018 
	C2250.302490,2620.518066 2256.962402,2640.825928 2260.618408,2661.673584 
	C2264.284180,2682.577148 2267.906738,2703.492920 2271.975098,2724.320068 
	C2276.672363,2748.363770 2277.257080,2773.103760 2284.434814,2796.736328 
	C2285.367432,2799.806396 2284.789551,2803.353516 2284.807861,2806.680176 
	C2284.986328,2839.323242 2285.204102,2871.966064 2285.243652,2904.609131 
	C2285.250000,2909.889648 2285.659668,2915.680908 2283.722656,2920.337402 
	C2280.471436,2928.153320 2280.983643,2936.019287 2280.973389,2943.919189 
	C2280.928711,2978.561279 2281.142822,3013.203369 2281.195801,3047.845459 
	C2281.204834,3053.830811 2281.431396,3059.904297 2280.487549,3065.764648 
	C2280.033203,3068.584229 2277.086670,3071.002197 2274.003418,3070.422852 
	C2273.239746,3061.218994 2273.763916,3051.674561 2271.440918,3042.882812 
	C2266.798096,3025.309326 2269.197021,3007.333984 2266.718262,2989.644775 
	C2264.338135,2972.657959 2265.486816,2955.151611 2262.769043,2938.245850 
	C2261.075684,2927.711670 2262.178955,2916.717285 2259.085449,2906.887695 
	C2256.374023,2898.272217 2256.278564,2890.025879 2255.965088,2881.478760 
	C2255.818604,2877.495605 2255.776855,2873.495605 2255.362061,2869.537354 
	C2253.778076,2854.418945 2250.878418,2839.324219 2250.748291,2824.201172 
	C2250.632812,2810.797119 2248.824707,2797.618896 2246.152588,2784.872070 
	C2237.349609,2742.882324 2227.297119,2701.145752 2217.175781,2659.445068 
	C2211.723877,2636.981445 2205.623291,2614.647217 2198.934326,2592.520996 
	C2193.950195,2576.033691 2196.403320,2562.239502 2206.802979,2548.096436 
	C2222.084961,2527.313965 2235.610596,2505.226074 2249.593994,2483.507324 
	C2261.767334,2464.599365 2273.685303,2445.522705 2285.421631,2426.340332 
	C2290.944824,2417.312744 2295.837402,2407.895264 2300.902344,2398.593018 
	C2304.769775,2391.490479 2306.235352,2384.376465 2303.680664,2376.075195 
	C2301.382812,2368.608154 2301.208496,2360.503662 2299.901123,2352.713135 
	C2296.076904,2329.928711 2292.221436,2307.148682 2288.248779,2284.389893 
	C2285.301758,2267.506836 2281.836182,2250.709229 2279.163574,2233.784912 
	C2274.627930,2205.064697 2270.781250,2176.235596 2266.172119,2147.527832 
	C2263.046143,2128.057617 2259.169678,2108.706543 2255.515137,2089.323486 
	C2253.609619,2079.216553 2249.081055,2072.314697 2237.127197,2072.429932 
	C2229.953125,2072.499023 2222.773682,2070.486328 2215.572510,2069.607422 
	C2201.154541,2067.847900 2186.740723,2066.013672 2172.287109,2064.597900 
	C2153.901611,2062.797119 2135.450684,2061.673828 2117.360596,2057.494873 
	C2114.947021,2056.937256 2112.116943,2057.915527 2109.527832,2058.425781 
	C2088.160889,2062.636719 2066.810791,2066.933838 2045.443604,2071.143799 
	C2035.067383,2073.188232 2024.612427,2074.859619 2014.285522,2077.122559 
	C1985.896851,2083.343994 1957.772705,2091.138428 1929.129395,2095.716797 
	C1906.346924,2099.358398 1883.966675,2104.477783 1861.431030,2109.067871 
	C1855.611938,2110.253418 1849.727417,2111.117432 1842.035034,2110.088379 
	C1838.913940,2109.014893 1835.617065,2108.289307 1832.698486,2106.814941 
	C1797.653931,2089.114502 1762.717651,2071.198730 1727.635986,2053.572510 
	C1713.918213,2046.680298 1699.402466,2042.203247 1683.982544,2040.847412 
	C1664.166504,2039.104980 1644.357788,2037.256836 1624.571777,2035.205811 
	C1614.711182,2034.183716 1604.424805,2034.043091 1595.196167,2030.934937 
	C1582.541992,2026.673096 1570.453003,2028.352661 1558.374756,2029.560669 
	C1553.111694,2035.140625 1551.378418,2041.438599 1550.482422,2048.156250 
	C1547.333984,2071.757812 1544.083862,2095.346191 1540.916016,2118.945068 
	C1540.121338,2124.864258 1539.396606,2130.795654 1538.799683,2136.737549 
	C1536.689819,2157.740479 1539.137573,2177.311035 1551.545166,2195.673584 
	C1566.023804,2217.101318 1578.693237,2239.762207 1591.903442,2262.032959 
	C1600.362915,2276.294922 1608.540894,2290.730469 1616.557007,2305.247314 
	C1626.839355,2323.868652 1636.889771,2342.619141 1646.937134,2361.368896 
	C1661.676758,2388.875732 1676.390747,2416.396240 1690.948975,2443.999023 
	C1693.413574,2448.672363 1695.022583,2453.794678 1697.057983,2458.696777 
	C1706.782715,2482.117920 1718.205200,2504.886963 1733.604004,2524.872070 
	C1754.740967,2552.304443 1780.634644,2575.547607 1805.393066,2599.711670 
	C1807.286621,2601.559570 1809.390015,2603.240479 1811.582031,2604.724365 
	C1816.101562,2607.784424 1821.735352,2605.571777 1822.048218,2600.375488 
	C1822.447388,2593.748535 1823.753662,2586.592773 1821.870239,2580.535156 
	C1818.183472,2568.677979 1819.299561,2556.817139 1819.058594,2544.910400 
	C1818.910278,2537.584961 1820.554077,2529.826904 1818.669800,2523.016602 
	C1814.841431,2509.179199 1816.999512,2495.198242 1815.464844,2481.428955 
	C1813.027466,2459.558838 1812.726685,2437.698975 1812.935669,2415.775146 
	C1812.942017,2415.111572 1812.826782,2414.447754 1812.779785,2413.783203 
	C1812.031128,2403.200439 1810.178345,2392.548096 1810.841675,2382.054443 
	C1811.537598,2371.044434 1806.541870,2361.270264 1806.204102,2350.802734 
	C1805.689087,2334.838623 1806.319336,2318.832764 1806.697510,2302.850098 
	C1806.749390,2300.657227 1806.641724,2297.263184 1812.154785,2297.874756 
	C1813.832764,2303.493896 1815.776978,2309.616455 1817.488037,2315.803467 
	C1823.668457,2338.150391 1830.588745,2360.336182 1835.643066,2382.937744 
	C1839.690308,2401.036133 1845.220581,2418.726318 1849.056519,2436.914551 
	C1852.680176,2454.095459 1855.843140,2471.733887 1863.621460,2491.612061 
	C1863.620850,2518.102783 1872.338257,2542.221924 1883.094482,2565.973145 
	C1894.040894,2590.143555 1904.249146,2614.652832 1914.515137,2639.125488 
	C1925.533569,2665.391602 1936.327393,2691.753174 1947.059692,2718.137939 
	C1955.050171,2737.782227 1963.154175,2757.393311 1970.561523,2777.259766 
	C1987.215942,2821.926270 2003.238037,2866.830078 2020.065186,2911.430420 
	C2023.767212,2921.242920 2028.690063,2930.986572 2034.941284,2939.348877 
	C2043.199463,2950.395752 2053.660156,2959.764648 2062.571533,2970.361816 
	C2082.169434,2993.666748 2100.692871,3017.910400 2120.947510,3040.617920 
	C2143.872070,3066.318604 2165.239014,3093.282715 2187.558838,3119.463623 
	C2198.691406,3132.521729 2208.451416,3146.883789 2220.503418,3158.992920 
	C2238.814453,3177.390869 2254.668945,3197.634766 2270.327881,3218.169922 
	C2272.562988,3221.101318 2276.741943,3222.550537 2281.586914,3226.812256 
	C2283.507080,3226.950684 2285.968750,3227.929199 2287.262451,3227.095703 
	C2298.439453,3219.889893 2309.000244,3212.096436 2316.525391,3200.604492 
	C2320.056641,3195.211670 2325.401123,3190.945312 2330.204590,3186.469482 
	C2333.076660,3183.792480 2337.086914,3182.197266 2339.556396,3179.252686 
	C2348.925293,3168.081543 2358.382812,3156.922852 2366.864746,3145.084229 
	C2380.397461,3126.195557 2393.322266,3106.864014 2406.236572,3087.541260 
	C2420.620605,3066.019043 2434.888184,3044.414062 2448.859863,3022.623047 
	C2459.241699,3006.430664 2468.748779,2989.675049 2479.217041,2973.541260 
	C2497.311768,2945.652832 2516.060547,2918.187744 2534.102539,2890.266113 
	C2541.647217,2878.589844 2548.558838,2866.442871 2554.935303,2854.085449 
	C2571.194580,2822.576660 2578.839111,2787.872559 2590.609619,2754.704590 
	C2596.606201,2737.806885 2596.333740,2719.709473 2592.746338,2701.628418 
	C2582.681152,2650.895752 2573.447754,2599.998779 2563.753906,2549.191895 
	C2560.031250,2529.679443 2555.689697,2510.283203 2552.124756,2490.743652 
	C2549.749023,2477.723389 2548.898193,2464.407471 2546.185303,2451.470947 
	C2542.988037,2436.223145 2543.737305,2420.936035 2544.763916,2405.764404 
	C2545.876709,2389.321289 2548.765625,2372.988525 2551.121338,2356.642578 
	C2552.920410,2344.158936 2554.644043,2331.636475 2557.200928,2319.296631 
	C2562.035889,2295.963867 2567.508057,2272.763916 2572.525635,2249.467773 
	C2573.062988,2246.972900 2572.344971,2244.207275 2574.299316,2243.575928 
	C2575.064209,2251.756592 2575.829102,2259.937256 2576.310303,2270.136230 
	C2577.194824,2271.098389 2578.079346,2272.060791 2579.150635,2276.517090 
	C2579.204346,2288.325439 2579.258057,2300.133789 2578.333984,2312.616455 
	C2577.934570,2314.011230 2578.419678,2314.866699 2580.743408,2318.629639 
	C2582.242676,2327.719238 2583.961182,2336.779297 2585.201904,2345.904053 
	C2589.469482,2377.287842 2593.062744,2408.772461 2597.887695,2440.068359 
	C2602.100586,2467.394287 2607.560059,2494.530518 2612.598145,2521.726318 
	C2616.799561,2544.407227 2620.747070,2567.149902 2625.654785,2589.680420 
	C2628.737793,2603.834717 2633.385742,2617.648682 2637.559082,2634.505127 
	C2640.212402,2642.001953 2642.332520,2649.742676 2645.629150,2656.945312 
	C2652.695312,2672.384033 2662.729980,2685.722168 2678.751221,2692.548340 
	C2699.076904,2701.208740 2720.598633,2701.631104 2740.479492,2692.780273 
	C2759.908447,2684.130371 2777.164795,2671.117432 2789.082031,2652.770508 
	C2799.978027,2635.995850 2808.799072,2618.102539 2813.044189,2598.375244 
	C2818.760254,2571.811523 2823.148438,2545.010742 2825.982422,2517.977783 
	C2828.804443,2491.061523 2830.627441,2464.087402 2835.171387,2437.299072 
	C2839.035889,2414.516113 2839.465088,2391.171387 2842.224121,2368.172363 
	C2844.026611,2353.146729 2843.633057,2337.692627 2850.280762,2323.423096 
	C2861.208740,2299.964844 2871.950684,2276.415771 2882.440918,2252.758301 
	C2896.691162,2220.621826 2910.790283,2188.415771 2924.656250,2156.111572 
	C2937.991211,2125.044678 2951.083252,2093.871094 2964.004883,2062.630127 
	C2969.580322,2049.149658 2974.617676,2035.438354 2979.566162,2021.711670 
	C2981.244873,2017.056030 2977.900146,2011.767578 2973.038086,2011.209473 
	C2968.484863,2010.686890 2963.720215,2010.540283 2959.221191,2011.279297 
	C2943.545166,2013.854858 2927.908936,2016.707886 2912.322266,2019.783081 
	C2882.449707,2025.677002 2852.611084,2031.743896 2822.794434,2037.914795 
	C2820.335938,2038.423584 2818.154297,2040.270630 2812.843262,2041.531372 
	C2809.842285,2041.700439 2806.841309,2041.869507 2802.218994,2041.318604 
	C2800.849854,2041.354980 2799.959473,2042.026978 2796.976807,2043.813477 
	C2795.283691,2044.228149 2793.590332,2044.642944 2789.272949,2044.175903 
	C2785.596436,2043.985962 2781.820312,2043.439575 2775.879639,2047.538330 
M2189.349854,1286.634644 
	C2182.858154,1282.168335 2176.911377,1282.957520 2171.555664,1288.583862 
	C2159.185547,1301.579590 2146.806641,1314.567505 2134.509766,1327.632324 
	C2114.924072,1348.441162 2095.326904,1369.240234 2075.907227,1390.203369 
	C2071.040771,1395.456787 2065.604492,1397.937256 2058.358154,1397.691284 
	C2046.375244,1397.284424 2034.369507,1397.590820 2022.374390,1397.491699 
	C2014.092407,1397.423340 2006.649414,1399.286377 2000.742676,1405.602905 
	C1982.165283,1425.468872 1963.280762,1445.054321 1944.999756,1465.188354 
	C1932.517456,1478.935791 1920.844116,1493.417969 1908.811768,1507.573853 
	C1898.928467,1519.201294 1889.467407,1531.222534 1879.063721,1542.363770 
	C1865.479614,1556.911011 1852.907104,1572.435059 1838.874146,1586.457397 
	C1825.095459,1600.225952 1814.079834,1615.833984 1804.059814,1632.109497 
	C1785.646484,1662.018311 1768.770996,1692.872070 1750.446899,1722.838013 
	C1729.760620,1756.666992 1708.272217,1790.007690 1686.960327,1823.450806 
	C1675.191772,1841.918457 1663.188965,1860.239990 1651.076416,1878.484375 
	C1637.894409,1898.339600 1624.464600,1918.030518 1611.135376,1937.788086 
	C1610.391846,1938.890137 1609.659058,1940.014893 1608.789185,1941.014038 
	C1595.296509,1956.508545 1585.793213,1974.869385 1573.012573,1990.887085 
	C1571.471802,1992.818237 1571.193848,1995.757080 1570.353027,1998.164917 
	C1575.481323,2006.054077 1583.006836,2007.355347 1591.363037,2007.455933 
	C1609.263306,2007.671265 1627.073242,2008.238892 1645.005737,2009.930054 
	C1670.659790,2012.349243 1696.478638,2014.029663 1722.217651,2015.519897 
	C1741.357910,2016.627930 1760.257568,2021.625244 1779.590698,2019.513428 
	C1780.902588,2019.370117 1782.290283,2019.380127 1783.578491,2019.638794 
	C1804.509155,2023.841309 1825.785156,2023.839722 1846.972900,2024.915405 
	C1850.292236,2025.083862 1854.011353,2024.412842 1856.851318,2025.682739 
	C1865.852295,2029.707520 1875.218872,2027.236450 1884.348022,2028.216797 
	C1893.447998,2029.193970 1902.439941,2031.365112 1911.550415,2032.011719 
	C1923.399292,2032.852661 1935.138428,2033.283936 1947.040161,2035.004395 
	C1971.843384,2038.589478 1997.076904,2039.189575 2022.130859,2041.055664 
	C2026.093506,2041.350708 2030.086182,2041.598877 2033.987793,2042.298340 
	C2052.428955,2045.604858 2070.912842,2045.466309 2089.303955,2042.451294 
	C2118.764404,2037.621338 2148.405518,2036.793823 2178.018555,2039.192139 
	C2205.620117,2041.427612 2232.856445,2047.497925 2260.712646,2047.575562 
	C2263.962402,2047.584717 2267.187256,2048.884521 2270.460938,2049.238525 
	C2288.306885,2051.168457 2305.810791,2052.071289 2323.457275,2045.799194 
	C2340.921875,2039.591675 2358.272705,2033.386230 2375.348633,2026.059326 
	C2401.522949,2014.828491 2428.498535,2005.474121 2455.033447,1995.066895 
	C2459.913086,1993.152954 2464.314941,1990.021729 2472.214600,1988.028198 
	C2482.956787,1987.145752 2493.339355,1989.020630 2503.607910,1991.985229 
	C2535.403809,2001.164673 2567.097412,2010.733521 2599.072266,2019.243530 
	C2614.986816,2023.479248 2630.802979,2029.553223 2647.765137,2028.039795 
	C2660.259033,2026.925049 2672.740723,2025.488037 2685.152832,2023.680420 
	C2708.023438,2020.349976 2730.805420,2016.404907 2753.686279,2013.151978 
	C2779.809814,2009.438232 2806.088867,2006.748169 2832.135010,2002.580933 
	C2852.424072,1999.334839 2872.607178,1996.317261 2893.235596,1996.820312 
	C2908.546387,1997.193604 2923.875488,1997.011963 2939.192383,1996.801758 
	C2942.849854,1996.751587 2946.492432,1995.602539 2951.969482,1994.636475 
	C2944.823975,1985.329224 2939.245850,1977.156982 2932.759033,1969.783936 
	C2913.044922,1947.375610 2892.961914,1925.291992 2873.059570,1903.048706 
	C2864.219238,1893.168579 2855.343750,1883.315430 2846.703125,1873.261963 
	C2829.881836,1853.689819 2813.415039,1833.810181 2796.430664,1814.381958 
	C2777.220459,1792.407471 2757.412109,1770.955811 2738.220459,1748.965698 
	C2721.673340,1730.005615 2705.639648,1710.597778 2689.354980,1691.408203 
	C2675.669922,1675.282227 2660.921631,1659.927856 2648.584961,1642.831299 
	C2639.352783,1630.037842 2628.203613,1623.404663 2613.264648,1619.592407 
	C2588.282471,1613.217285 2562.368164,1612.055298 2537.556885,1604.514404 
	C2529.663330,1602.115112 2524.607666,1599.003784 2520.967529,1592.251953 
	C2517.186279,1585.238770 2513.245605,1578.311646 2509.369629,1571.349609 
	C2497.104736,1549.318359 2484.627441,1527.402344 2472.633789,1505.224609 
	C2461.897705,1485.372314 2451.787842,1465.182495 2441.201416,1445.247925 
	C2437.784424,1438.813599 2434.020264,1432.514282 2429.836182,1426.559937 
	C2428.053467,1424.022827 2425.052246,1421.555054 2422.138672,1420.756470 
	C2415.164551,1418.845459 2407.960693,1417.542725 2400.766846,1416.705322 
	C2375.150879,1413.723633 2349.550781,1409.747925 2323.843018,1408.734741 
	C2308.862305,1408.144165 2299.435059,1401.253540 2289.416016,1391.927002 
	C2266.995117,1371.055786 2248.233643,1346.801025 2226.434814,1325.383545 
	C2220.782471,1319.830444 2216.321533,1313.075562 2210.760986,1307.415405 
	C2204.301514,1300.839966 2197.234131,1294.861572 2189.349854,1286.634644 
z"/>
<path fill="#17AEE4" opacity="1.000000" stroke="none" 
	d="
M2280.020996,3224.686035 
	C2276.741943,3222.550537 2272.562988,3221.101318 2270.327881,3218.169922 
	C2254.668945,3197.634766 2238.814453,3177.390869 2220.503418,3158.992920 
	C2208.451416,3146.883789 2198.691406,3132.521729 2187.558838,3119.463623 
	C2165.239014,3093.282715 2143.872070,3066.318604 2120.947510,3040.617920 
	C2100.692871,3017.910400 2082.169434,2993.666748 2062.571533,2970.361816 
	C2053.660156,2959.764648 2043.199463,2950.395752 2034.941284,2939.348877 
	C2028.690063,2930.986572 2023.767212,2921.242920 2020.065186,2911.430420 
	C2003.238037,2866.830078 1987.215942,2821.926270 1970.561523,2777.259766 
	C1963.154175,2757.393311 1955.050171,2737.782227 1947.059692,2718.137939 
	C1936.327393,2691.753174 1925.533569,2665.391602 1914.515137,2639.125488 
	C1904.249146,2614.652832 1894.040894,2590.143555 1883.094482,2565.973145 
	C1872.338257,2542.221924 1863.620850,2518.102783 1863.747681,2488.034668 
	C1866.451538,2441.104980 1859.321655,2398.137451 1858.695068,2354.871582 
	C1858.253296,2324.372559 1854.023193,2293.945312 1852.212402,2263.443115 
	C1850.991455,2242.877197 1850.825439,2222.324951 1848.666626,2201.725586 
	C1845.553345,2172.019043 1845.329712,2142.009521 1843.872925,2112.129395 
	C1849.727417,2111.117432 1855.611938,2110.253418 1861.431030,2109.067871 
	C1883.966675,2104.477783 1906.346924,2099.358398 1929.129395,2095.716797 
	C1957.772705,2091.138428 1985.896851,2083.343994 2014.285522,2077.122559 
	C2024.612427,2074.859619 2035.067383,2073.188232 2045.443604,2071.143799 
	C2066.810791,2066.933838 2088.160889,2062.636719 2109.527832,2058.425781 
	C2112.116943,2057.915527 2114.947021,2056.937256 2117.360596,2057.494873 
	C2135.450684,2061.673828 2153.901611,2062.797119 2172.287109,2064.597900 
	C2186.740723,2066.013672 2201.154541,2067.847900 2215.572510,2069.607422 
	C2222.773682,2070.486328 2229.953125,2072.499023 2237.127197,2072.429932 
	C2249.081055,2072.314697 2253.609619,2079.216553 2255.515137,2089.323486 
	C2259.169678,2108.706543 2263.046143,2128.057617 2266.172119,2147.527832 
	C2270.781250,2176.235596 2274.627930,2205.064697 2279.163574,2233.784912 
	C2281.836182,2250.709229 2285.301758,2267.506836 2288.248779,2284.389893 
	C2292.221436,2307.148682 2296.076904,2329.928711 2299.901123,2352.713135 
	C2301.208496,2360.503662 2301.382812,2368.608154 2303.680664,2376.075195 
	C2306.235352,2384.376465 2304.769775,2391.490479 2300.902344,2398.593018 
	C2295.837402,2407.895264 2290.944824,2417.312744 2285.421631,2426.340332 
	C2273.685303,2445.522705 2261.767334,2464.599365 2249.593994,2483.507324 
	C2235.610596,2505.226074 2222.084961,2527.313965 2206.802979,2548.096436 
	C2196.403320,2562.239502 2193.950195,2576.033691 2198.934326,2592.520996 
	C2205.623291,2614.647217 2211.723877,2636.981445 2217.175781,2659.445068 
	C2227.297119,2701.145752 2237.349609,2742.882324 2246.152588,2784.872070 
	C2248.824707,2797.618896 2250.632812,2810.797119 2250.748291,2824.201172 
	C2250.878418,2839.324219 2253.778076,2854.418945 2255.362061,2869.537354 
	C2255.776855,2873.495605 2255.818604,2877.495605 2255.965088,2881.478760 
	C2256.278564,2890.025879 2256.374023,2898.272217 2259.085449,2906.887695 
	C2262.178955,2916.717285 2261.075684,2927.711670 2262.769043,2938.245850 
	C2265.486816,2955.151611 2264.338135,2972.657959 2266.718262,2989.644775 
	C2269.197021,3007.333984 2266.798096,3025.309326 2271.440918,3042.882812 
	C2273.763916,3051.674561 2273.239746,3061.218994 2274.111572,3073.335449 
	C2273.624023,3082.745117 2270.378418,3089.467285 2273.986572,3095.709717 
	C2281.597900,3108.877441 2282.343506,3123.519287 2282.900146,3137.919434 
	C2283.820557,3161.726318 2283.659180,3185.584717 2283.451660,3209.416992 
	C2283.406982,3214.516113 2281.220703,3219.596924 2280.020996,3224.686035 
z"/>
<path fill="#025694" opacity="1.000000" stroke="none" 
	d="
M2280.803955,3225.749023 
	C2281.220703,3219.596924 2283.406982,3214.516113 2283.451660,3209.416992 
	C2283.659180,3185.584717 2283.820557,3161.726318 2282.900146,3137.919434 
	C2282.343506,3123.519287 2281.597900,3108.877441 2273.986572,3095.709717 
	C2270.378418,3089.467285 2273.624023,3082.745117 2274.744385,3074.925049 
	C2277.086670,3071.002197 2280.033203,3068.584229 2280.487549,3065.764648 
	C2281.431396,3059.904297 2281.204834,3053.830811 2281.195801,3047.845459 
	C2281.142822,3013.203369 2280.928711,2978.561279 2280.973389,2943.919189 
	C2280.983643,2936.019287 2280.471436,2928.153320 2283.722656,2920.337402 
	C2285.659668,2915.680908 2285.250000,2909.889648 2285.243652,2904.609131 
	C2285.204102,2871.966064 2284.986328,2839.323242 2284.807861,2806.680176 
	C2284.789551,2803.353516 2285.367432,2799.806396 2284.434814,2796.736328 
	C2277.257080,2773.103760 2276.672363,2748.363770 2271.975098,2724.320068 
	C2267.906738,2703.492920 2264.284180,2682.577148 2260.618408,2661.673584 
	C2256.962402,2640.825928 2250.302490,2620.518066 2249.208984,2599.218018 
	C2248.630371,2587.945801 2248.169434,2576.656982 2248.093262,2565.373047 
	C2248.037354,2557.121338 2251.581543,2549.989502 2256.170654,2543.243408 
	C2268.880127,2524.560303 2281.458496,2505.787842 2294.027588,2487.010010 
	C2306.586914,2468.246582 2319.135986,2449.475830 2331.561279,2430.623779 
	C2337.048340,2422.298340 2342.304688,2413.816406 2347.486816,2405.296631 
	C2349.201416,2402.477539 2351.156006,2399.437500 2351.625732,2396.293213 
	C2353.580078,2383.211670 2356.065918,2370.078857 2356.405762,2356.914551 
	C2357.059082,2331.619385 2357.147461,2306.255859 2356.020020,2280.985352 
	C2355.135498,2261.157471 2352.398682,2241.384766 2349.888428,2221.663330 
	C2346.547119,2195.411377 2342.140869,2169.289307 2339.133057,2143.003662 
	C2337.259033,2126.623291 2336.362305,2110.189697 2332.386719,2094.060303 
	C2331.178711,2089.158691 2332.656738,2083.594971 2332.877686,2078.907715 
	C2340.036133,2071.367432 2349.229248,2071.052490 2357.384033,2069.452637 
	C2388.563721,2063.335938 2419.897705,2057.985107 2451.233643,2052.700195 
	C2458.331055,2051.503418 2465.663574,2051.640869 2472.894775,2051.311279 
	C2478.869629,2051.038574 2484.854736,2050.862793 2490.835205,2050.866699 
	C2496.781006,2050.870605 2502.734131,2051.021240 2508.670654,2051.348633 
	C2514.614502,2051.676514 2520.533691,2052.524414 2526.478271,2052.743164 
	C2534.420166,2053.034912 2542.100586,2053.397705 2550.042236,2055.534912 
	C2560.786133,2058.426514 2572.255127,2058.657715 2583.424561,2059.928223 
	C2595.921143,2061.350098 2608.430908,2062.657715 2622.604980,2065.978027 
	C2614.818604,2107.891357 2601.671875,2146.564209 2584.450195,2183.857422 
	C2582.545898,2187.981445 2580.460693,2192.701660 2580.706787,2197.017090 
	C2581.601074,2212.684082 2575.960449,2226.906738 2572.209473,2241.567383 
	C2572.344971,2244.207275 2573.062988,2246.972900 2572.525635,2249.467773 
	C2567.508057,2272.763916 2562.035889,2295.963867 2557.200928,2319.296631 
	C2554.644043,2331.636475 2552.920410,2344.158936 2551.121338,2356.642578 
	C2548.765625,2372.988525 2545.876709,2389.321289 2544.763916,2405.764404 
	C2543.737305,2420.936035 2542.988037,2436.223145 2546.185303,2451.470947 
	C2548.898193,2464.407471 2549.749023,2477.723389 2552.124756,2490.743652 
	C2555.689697,2510.283203 2560.031250,2529.679443 2563.753906,2549.191895 
	C2573.447754,2599.998779 2582.681152,2650.895752 2592.746338,2701.628418 
	C2596.333740,2719.709473 2596.606201,2737.806885 2590.609619,2754.704590 
	C2578.839111,2787.872559 2571.194580,2822.576660 2554.935303,2854.085449 
	C2548.558838,2866.442871 2541.647217,2878.589844 2534.102539,2890.266113 
	C2516.060547,2918.187744 2497.311768,2945.652832 2479.217041,2973.541260 
	C2468.748779,2989.675049 2459.241699,3006.430664 2448.859863,3022.623047 
	C2434.888184,3044.414062 2420.620605,3066.019043 2406.236572,3087.541260 
	C2393.322266,3106.864014 2380.397461,3126.195557 2366.864746,3145.084229 
	C2358.382812,3156.922852 2348.925293,3168.081543 2339.556396,3179.252686 
	C2337.086914,3182.197266 2333.076660,3183.792480 2330.204590,3186.469482 
	C2325.401123,3190.945312 2320.056641,3195.211670 2316.525391,3200.604492 
	C2309.000244,3212.096436 2298.439453,3219.889893 2287.262451,3227.095703 
	C2285.968750,3227.929199 2283.507080,3226.950684 2280.803955,3225.749023 
z"/>
<path fill="#18ADE3" opacity="1.000000" stroke="none" 
	d="
M2190.430664,1288.624023 
	C2197.234131,1294.861572 2204.301514,1300.839966 2210.760986,1307.415405 
	C2216.321533,1313.075562 2220.782471,1319.830444 2226.434814,1325.383545 
	C2248.233643,1346.801025 2266.995117,1371.055786 2289.416016,1391.927002 
	C2299.435059,1401.253540 2308.862305,1408.144165 2323.843018,1408.734741 
	C2349.550781,1409.747925 2375.150879,1413.723633 2400.766846,1416.705322 
	C2407.960693,1417.542725 2415.164551,1418.845459 2422.138672,1420.756470 
	C2425.052246,1421.555054 2428.053467,1424.022827 2429.836182,1426.559937 
	C2434.020264,1432.514282 2437.784424,1438.813599 2441.201416,1445.247925 
	C2451.787842,1465.182495 2461.897705,1485.372314 2472.633789,1505.224609 
	C2484.627441,1527.402344 2497.104736,1549.318359 2509.369629,1571.349609 
	C2513.245605,1578.311646 2517.186279,1585.238770 2520.967529,1592.251953 
	C2524.607666,1599.003784 2529.663330,1602.115112 2537.556885,1604.514404 
	C2562.368164,1612.055298 2588.282471,1613.217285 2613.264648,1619.592407 
	C2628.203613,1623.404663 2639.352783,1630.037842 2648.584961,1642.831299 
	C2660.921631,1659.927856 2675.669922,1675.282227 2689.354980,1691.408203 
	C2705.639648,1710.597778 2721.673340,1730.005615 2738.220459,1748.965698 
	C2757.412109,1770.955811 2777.220459,1792.407471 2796.430664,1814.381958 
	C2813.415039,1833.810181 2829.881836,1853.689819 2846.703125,1873.261963 
	C2855.343750,1883.315430 2864.219238,1893.168579 2873.059570,1903.048706 
	C2892.961914,1925.291992 2913.044922,1947.375610 2932.759033,1969.783936 
	C2939.245850,1977.156982 2944.823975,1985.329224 2951.969482,1994.636475 
	C2946.492432,1995.602539 2942.849854,1996.751587 2939.192383,1996.801758 
	C2923.875488,1997.011963 2908.546387,1997.193604 2893.235596,1996.820312 
	C2872.607178,1996.317261 2852.424072,1999.334839 2832.135010,2002.580933 
	C2806.088867,2006.748169 2779.809814,2009.438232 2753.686279,2013.151978 
	C2730.805420,2016.404907 2708.023438,2020.349976 2685.152832,2023.680420 
	C2672.740723,2025.488037 2660.259033,2026.925049 2647.765137,2028.039795 
	C2630.802979,2029.553223 2614.986816,2023.479248 2599.072266,2019.243530 
	C2567.097412,2010.733521 2535.403809,2001.164673 2503.607910,1991.985229 
	C2493.339355,1989.020630 2482.956787,1987.145752 2469.958008,1986.528320 
	C2457.472900,1971.536865 2442.943604,1963.461426 2429.060059,1954.662476 
	C2408.339844,1941.530518 2386.654785,1930.229858 2363.678955,1921.487427 
	C2360.612549,1920.320679 2357.633545,1918.593872 2359.092773,1912.908936 
	C2368.519287,1910.318726 2378.605713,1907.408936 2388.766113,1904.785034 
	C2408.490967,1899.690918 2408.508057,1899.757446 2417.165771,1891.992676 
	C2412.964111,1887.852783 2408.801270,1883.750854 2403.917969,1878.515503 
	C2395.546143,1868.215576 2387.399902,1859.412354 2380.349609,1849.804810 
	C2366.810059,1831.354980 2350.502686,1816.153076 2330.826660,1804.501953 
	C2321.685547,1799.088867 2312.578613,1793.613892 2303.557861,1788.003784 
	C2295.093506,1782.739502 2286.889160,1777.131104 2281.953613,1767.068604 
	C2286.789551,1752.148193 2291.346191,1736.823242 2302.938965,1725.092163 
	C2314.619629,1713.272095 2326.880371,1702.026855 2338.650879,1690.292847 
	C2343.717041,1685.242432 2350.099365,1680.984009 2351.651367,1672.260986 
	C2349.352295,1671.203491 2347.161865,1669.637207 2344.763184,1669.190674 
	C2335.010498,1667.375122 2325.162842,1666.071289 2315.406982,1664.271118 
	C2291.406738,1659.842529 2267.592285,1653.971191 2243.416992,1651.038696 
	C2213.863037,1647.453735 2184.942139,1640.953979 2155.827148,1635.306152 
	C2144.364258,1633.082642 2142.220947,1627.752808 2147.800537,1616.981323 
	C2151.772949,1609.312622 2156.818359,1602.187256 2160.608887,1594.439697 
	C2166.600830,1582.192871 2176.127197,1575.696655 2189.175293,1571.864136 
	C2207.596924,1566.453369 2225.477051,1559.185669 2243.541748,1552.583496 
	C2248.622314,1550.726807 2253.374268,1548.247925 2254.796631,1540.984985 
	C2253.011719,1535.029053 2251.290283,1527.932129 2248.773682,1521.129395 
	C2239.354004,1495.665894 2229.643066,1470.310425 2220.099609,1444.892578 
	C2207.991455,1412.644043 2195.939941,1380.374268 2183.566895,1346.459839 
	C2182.718018,1341.535400 2181.802002,1338.278442 2181.678711,1334.991699 
	C2181.180664,1321.740479 2180.630859,1308.478149 2180.719482,1295.223877 
	C2180.758545,1289.385864 2184.835938,1287.373291 2190.430664,1288.624023 
z"/>
<path fill="#8BD0EB" opacity="1.000000" stroke="none" 
	d="
M2404.638184,1879.648926 
	C2408.801270,1883.750854 2412.964111,1887.852783 2417.165771,1891.992676 
	C2408.508057,1899.757446 2408.490967,1899.690918 2388.766113,1904.785034 
	C2378.605713,1907.408936 2368.519287,1910.318726 2359.092773,1912.908936 
	C2357.633545,1918.593872 2360.612549,1920.320679 2363.678955,1921.487427 
	C2386.654785,1930.229858 2408.339844,1941.530518 2429.060059,1954.662476 
	C2442.943604,1963.461426 2457.472900,1971.536865 2468.319336,1986.240356 
	C2464.314941,1990.021729 2459.913086,1993.152954 2455.033447,1995.066895 
	C2428.498535,2005.474121 2401.522949,2014.828491 2375.348633,2026.059326 
	C2358.272705,2033.386230 2340.921875,2039.591675 2323.457275,2045.799194 
	C2305.810791,2052.071289 2288.306885,2051.168457 2270.460938,2049.238525 
	C2267.187256,2048.884521 2263.962402,2047.584717 2260.712646,2047.575562 
	C2232.856445,2047.497925 2205.620117,2041.427612 2178.018555,2039.192139 
	C2148.405518,2036.793823 2118.764404,2037.621338 2089.303955,2042.451294 
	C2070.912842,2045.466309 2052.428955,2045.604858 2033.987793,2042.298340 
	C2030.086182,2041.598877 2026.093506,2041.350708 2022.130859,2041.055664 
	C1997.076904,2039.189575 1971.843384,2038.589478 1947.040161,2035.004395 
	C1935.138428,2033.283936 1923.399292,2032.852661 1911.550415,2032.011719 
	C1902.439941,2031.365112 1893.447998,2029.193970 1884.348022,2028.216797 
	C1875.218872,2027.236450 1865.852295,2029.707520 1856.851318,2025.682739 
	C1854.011353,2024.412842 1850.292236,2025.083862 1846.972900,2024.915405 
	C1825.785156,2023.839722 1804.509155,2023.841309 1783.578491,2019.638794 
	C1782.290283,2019.380127 1780.902588,2019.370117 1779.590698,2019.513428 
	C1760.257568,2021.625244 1741.357910,2016.627930 1722.217651,2015.519897 
	C1696.478638,2014.029663 1670.659790,2012.349243 1645.005737,2009.930054 
	C1627.073242,2008.238892 1609.263306,2007.671265 1591.363037,2007.455933 
	C1583.006836,2007.355347 1575.481323,2006.054077 1570.353027,1998.164917 
	C1571.193848,1995.757080 1571.471802,1992.818237 1573.012573,1990.887085 
	C1585.793213,1974.869385 1595.296509,1956.508545 1608.789185,1941.014038 
	C1609.659058,1940.014893 1610.391846,1938.890137 1611.135376,1937.788086 
	C1624.464600,1918.030518 1637.894409,1898.339600 1651.076416,1878.484375 
	C1663.188965,1860.239990 1675.191772,1841.918457 1686.960327,1823.450806 
	C1708.272217,1790.007690 1729.760620,1756.666992 1750.446899,1722.838013 
	C1768.770996,1692.872070 1785.646484,1662.018311 1804.059814,1632.109497 
	C1814.079834,1615.833984 1825.095459,1600.225952 1838.874146,1586.457397 
	C1852.907104,1572.435059 1865.479614,1556.911011 1879.063721,1542.363770 
	C1889.467407,1531.222534 1898.928467,1519.201294 1908.811768,1507.573853 
	C1920.844116,1493.417969 1932.517456,1478.935791 1944.999756,1465.188354 
	C1963.280762,1445.054321 1982.165283,1425.468872 2000.742676,1405.602905 
	C2006.649414,1399.286377 2014.092407,1397.423340 2022.374390,1397.491699 
	C2034.369507,1397.590820 2046.375244,1397.284424 2058.358154,1397.691284 
	C2065.604492,1397.937256 2071.040771,1395.456787 2075.907227,1390.203369 
	C2095.326904,1369.240234 2114.924072,1348.441162 2134.509766,1327.632324 
	C2146.806641,1314.567505 2159.185547,1301.579590 2171.555664,1288.583862 
	C2176.911377,1282.957520 2182.858154,1282.168335 2189.890137,1287.629395 
	C2184.835938,1287.373291 2180.758545,1289.385864 2180.719482,1295.223877 
	C2180.630859,1308.478149 2181.180664,1321.740479 2181.678711,1334.991699 
	C2181.802002,1338.278442 2182.718018,1341.535400 2182.110840,1346.322754 
	C2177.078125,1347.110840 2174.784180,1349.214844 2172.897949,1352.214600 
	C2163.558350,1367.070557 2149.532227,1377.352051 2136.903564,1388.995117 
	C2131.536377,1393.943604 2125.817383,1398.547729 2120.773193,1403.802612 
	C2106.990234,1418.162109 2092.468506,1431.981689 2080.145264,1447.526123 
	C2067.595947,1463.356567 2052.472168,1469.225830 2033.157715,1466.532227 
	C2020.481201,1464.764404 2011.221558,1470.873047 2003.754395,1480.026367 
	C1990.353149,1496.453613 1977.341675,1513.198853 1964.167603,1529.811401 
	C1948.607056,1549.433105 1933.133179,1569.124390 1917.459229,1588.655151 
	C1904.241577,1605.125366 1891.389038,1621.949707 1877.239868,1637.590576 
	C1867.360962,1648.511597 1868.014893,1660.568481 1869.923340,1673.102905 
	C1870.956299,1679.887207 1875.187622,1685.105103 1882.073730,1687.706665 
	C1888.897827,1690.284790 1895.768555,1692.823608 1902.344604,1695.955444 
	C1913.147583,1701.100220 1923.936768,1706.352295 1934.272949,1712.349731 
	C1937.234131,1714.067749 1939.692139,1718.276611 1940.445557,1721.761841 
	C1941.372925,1726.051392 1940.275024,1730.778687 1940.032471,1735.725220 
	C1936.247803,1737.079468 1933.274780,1738.648193 1930.125732,1739.186157 
	C1913.223511,1742.074829 1896.313110,1744.958984 1879.337280,1747.362427 
	C1859.084229,1750.229858 1838.722656,1752.394531 1818.889160,1757.670776 
	C1810.407837,1759.927124 1803.779297,1763.814941 1798.352417,1771.758545 
	C1787.173096,1788.122559 1774.388672,1803.408569 1761.968994,1818.901245 
	C1751.225830,1832.302490 1738.909058,1844.588989 1729.336792,1858.752808 
	C1706.931641,1891.905762 1676.843262,1918.133667 1651.059204,1948.205566 
	C1645.033813,1955.233032 1638.489746,1961.815063 1632.255005,1968.666260 
	C1631.955444,1968.995483 1632.342285,1969.949219 1632.503662,1971.541504 
	C1634.702881,1971.835815 1637.237061,1972.798950 1639.507446,1972.368896 
	C1648.604736,1970.646484 1657.706421,1968.815918 1666.648071,1966.431030 
	C1687.088135,1960.979126 1707.341431,1954.808350 1727.846436,1949.624756 
	C1747.715576,1944.601685 1767.852905,1940.647705 1787.771851,1935.809692 
	C1795.364990,1933.965576 1802.547241,1930.420776 1810.144653,1928.604004 
	C1830.072754,1923.838867 1850.183716,1919.834473 1870.093506,1914.998657 
	C1875.785156,1913.615967 1881.793213,1911.412598 1886.366577,1907.904297 
	C1910.026245,1889.753296 1933.202637,1870.973755 1956.678589,1852.580444 
	C1972.295776,1840.344482 1988.094849,1828.338745 2003.918457,1816.370117 
	C2005.924561,1814.852783 2008.573730,1814.185547 2010.849121,1813.158569 
	C2015.750366,1820.867432 2016.689941,1822.364380 2015.921753,1825.853760 
	C2014.078491,1834.226196 2012.220337,1842.628906 2009.689575,1850.809448 
	C2003.232544,1871.680664 1996.343018,1892.417847 1989.802124,1913.263672 
	C1988.975708,1915.897217 1989.200928,1918.860718 1988.824707,1922.896973 
	C1993.002930,1921.417847 1995.647827,1920.864502 1997.911621,1919.618652 
	C2013.605591,1910.982422 2029.230469,1902.220337 2044.857544,1893.463135 
	C2056.933350,1886.695923 2068.962646,1879.846680 2081.042480,1873.086670 
	C2106.494873,1858.843140 2132.087646,1844.845337 2157.386230,1830.334595 
	C2173.599609,1821.035034 2189.946777,1816.305908 2208.570068,1822.859253 
	C2222.897217,1827.900513 2237.651855,1831.736328 2252.246094,1836.007324 
	C2274.500732,1842.520508 2296.816406,1848.825928 2319.040771,1855.440308 
	C2346.312012,1863.557007 2373.509766,1871.919312 2400.767822,1880.081055 
	C2401.912109,1880.423706 2403.341553,1879.814575 2404.638184,1879.648926 
z"/>
<path fill="#0572AF" opacity="1.000000" stroke="none" 
	d="
M1842.953979,2111.108887 
	C1845.329712,2142.009521 1845.553345,2172.019043 1848.666626,2201.725586 
	C1850.825439,2222.324951 1850.991455,2242.877197 1852.212402,2263.443115 
	C1854.023193,2293.945312 1858.253296,2324.372559 1858.695068,2354.871582 
	C1859.321655,2398.137451 1866.451538,2441.104980 1863.455811,2486.270020 
	C1855.843140,2471.733887 1852.680176,2454.095459 1849.056519,2436.914551 
	C1845.220581,2418.726318 1839.690308,2401.036133 1835.643066,2382.937744 
	C1830.588745,2360.336182 1823.668457,2338.150391 1817.488037,2315.803467 
	C1815.776978,2309.616455 1813.832764,2303.493896 1812.154785,2297.874756 
	C1806.641724,2297.263184 1806.749390,2300.657227 1806.697510,2302.850098 
	C1806.319336,2318.832764 1805.689087,2334.838623 1806.204102,2350.802734 
	C1806.541870,2361.270264 1811.537598,2371.044434 1810.841675,2382.054443 
	C1810.178345,2392.548096 1812.031128,2403.200439 1812.779785,2413.783203 
	C1812.826782,2414.447754 1812.942017,2415.111572 1812.935669,2415.775146 
	C1812.726685,2437.698975 1813.027466,2459.558838 1815.464844,2481.428955 
	C1816.999512,2495.198242 1814.841431,2509.179199 1818.669800,2523.016602 
	C1820.554077,2529.826904 1818.910278,2537.584961 1819.058594,2544.910400 
	C1819.299561,2556.817139 1818.183472,2568.677979 1821.870239,2580.535156 
	C1823.753662,2586.592773 1822.447388,2593.748535 1822.048218,2600.375488 
	C1821.735352,2605.571777 1816.101562,2607.784424 1811.582031,2604.724365 
	C1809.390015,2603.240479 1807.286621,2601.559570 1805.393066,2599.711670 
	C1780.634644,2575.547607 1754.740967,2552.304443 1733.604004,2524.872070 
	C1718.205200,2504.886963 1706.782715,2482.117920 1697.057983,2458.696777 
	C1695.022583,2453.794678 1693.413574,2448.672363 1690.948975,2443.999023 
	C1676.390747,2416.396240 1661.676758,2388.875732 1646.937134,2361.368896 
	C1636.889771,2342.619141 1626.839355,2323.868652 1616.557007,2305.247314 
	C1608.540894,2290.730469 1600.362915,2276.294922 1591.903442,2262.032959 
	C1578.693237,2239.762207 1566.023804,2217.101318 1551.545166,2195.673584 
	C1539.137573,2177.311035 1536.689819,2157.740479 1538.799683,2136.737549 
	C1539.396606,2130.795654 1540.121338,2124.864258 1540.916016,2118.945068 
	C1544.083862,2095.346191 1547.333984,2071.757812 1550.482422,2048.156250 
	C1551.378418,2041.438599 1553.111694,2035.140625 1558.374756,2029.560669 
	C1570.453003,2028.352661 1582.541992,2026.673096 1595.196167,2030.934937 
	C1604.424805,2034.043091 1614.711182,2034.183716 1624.571777,2035.205811 
	C1644.357788,2037.256836 1664.166504,2039.104980 1683.982544,2040.847412 
	C1699.402466,2042.203247 1713.918213,2046.680298 1727.635986,2053.572510 
	C1762.717651,2071.198730 1797.653931,2089.114502 1832.698486,2106.814941 
	C1835.617065,2108.289307 1838.913940,2109.014893 1842.953979,2111.108887 
z"/>
<path fill="#025694" opacity="1.000000" stroke="none" 
	d="
M2815.844238,2041.495972 
	C2818.154297,2040.270630 2820.335938,2038.423584 2822.794434,2037.914795 
	C2852.611084,2031.743896 2882.449707,2025.677002 2912.322266,2019.783081 
	C2927.908936,2016.707886 2943.545166,2013.854858 2959.221191,2011.279297 
	C2963.720215,2010.540283 2968.484863,2010.686890 2973.038086,2011.209473 
	C2977.900146,2011.767578 2981.244873,2017.056030 2979.566162,2021.711670 
	C2974.617676,2035.438354 2969.580322,2049.149658 2964.004883,2062.630127 
	C2951.083252,2093.871094 2937.991211,2125.044678 2924.656250,2156.111572 
	C2910.790283,2188.415771 2896.691162,2220.621826 2882.440918,2252.758301 
	C2871.950684,2276.415771 2861.208740,2299.964844 2850.280762,2323.423096 
	C2843.633057,2337.692627 2844.026611,2353.146729 2842.224121,2368.172363 
	C2839.465088,2391.171387 2839.035889,2414.516113 2835.171387,2437.299072 
	C2830.627441,2464.087402 2828.804443,2491.061523 2825.982422,2517.977783 
	C2823.148438,2545.010742 2818.760254,2571.811523 2813.044189,2598.375244 
	C2808.799072,2618.102539 2799.978027,2635.995850 2789.082031,2652.770508 
	C2777.164795,2671.117432 2759.908447,2684.130371 2740.479492,2692.780273 
	C2720.598633,2701.631104 2699.076904,2701.208740 2678.751221,2692.548340 
	C2662.729980,2685.722168 2652.695312,2672.384033 2645.629150,2656.945312 
	C2642.332520,2649.742676 2640.212402,2642.001953 2638.805176,2632.893311 
	C2645.545654,2631.040771 2648.430908,2627.365723 2650.120605,2622.864990 
	C2652.925781,2615.392578 2655.547119,2607.824463 2657.734375,2600.150635 
	C2672.868652,2547.046875 2687.852539,2493.900391 2702.920898,2440.777588 
	C2720.167236,2379.975830 2737.268799,2319.132568 2754.768311,2258.403809 
	C2773.926514,2191.917236 2793.514648,2125.554443 2812.755127,2059.091064 
	C2814.401367,2053.404541 2814.842773,2047.369263 2815.844238,2041.495972 
z"/>
<path fill="#0488C8" opacity="1.000000" stroke="none" 
	d="
M2814.343750,2041.513672 
	C2814.842773,2047.369263 2814.401367,2053.404541 2812.755127,2059.091064 
	C2793.514648,2125.554443 2773.926514,2191.917236 2754.768311,2258.403809 
	C2737.268799,2319.132568 2720.167236,2379.975830 2702.920898,2440.777588 
	C2687.852539,2493.900391 2672.868652,2547.046875 2657.734375,2600.150635 
	C2655.547119,2607.824463 2652.925781,2615.392578 2650.120605,2622.864990 
	C2648.430908,2627.365723 2645.545654,2631.040771 2638.691406,2631.448242 
	C2633.385742,2617.648682 2628.737793,2603.834717 2625.654785,2589.680420 
	C2620.747070,2567.149902 2616.799561,2544.407227 2612.598145,2521.726318 
	C2607.560059,2494.530518 2602.100586,2467.394287 2597.887695,2440.068359 
	C2593.062744,2408.772461 2589.469482,2377.287842 2585.201904,2345.904053 
	C2583.961182,2336.779297 2582.242676,2327.719238 2580.357422,2316.068848 
	C2579.971436,2313.508057 2579.311768,2311.942139 2579.311768,2311.942139 
	C2579.258057,2300.133789 2579.204346,2288.325439 2579.064941,2273.801025 
	C2578.556641,2269.796631 2577.761475,2268.807617 2576.593750,2268.117920 
	C2575.829102,2259.937256 2575.064209,2251.756592 2573.254395,2242.571777 
	C2575.960449,2226.906738 2581.601074,2212.684082 2580.706787,2197.017090 
	C2580.460693,2192.701660 2582.545898,2187.981445 2584.450195,2183.857422 
	C2601.671875,2146.564209 2614.818604,2107.891357 2624.261719,2066.401123 
	C2630.896240,2064.588379 2637.544189,2064.332031 2644.190674,2064.037598 
	C2653.405518,2063.629395 2662.702881,2065.266602 2671.724121,2061.116211 
	C2675.041748,2059.590088 2679.600342,2060.597656 2683.585205,2060.713135 
	C2698.298096,2061.139648 2712.492920,2057.820312 2726.830811,2055.224854 
	C2743.110596,2052.277588 2759.524170,2050.068359 2778.857422,2047.576172 
	C2785.189453,2046.761963 2788.543213,2045.909790 2791.897217,2045.057739 
	C2793.590332,2044.642944 2795.283691,2044.228149 2799.064941,2043.769287 
	C2802.368896,2043.673218 2803.264648,2043.111084 2803.840332,2042.038574 
	C2806.841309,2041.869507 2809.842285,2041.700439 2814.343750,2041.513672 
z"/>
<path fill="#025694" opacity="1.000000" stroke="none" 
	d="
M2790.584961,2044.616821 
	C2788.543213,2045.909790 2785.189453,2046.761963 2780.515137,2047.306885 
	C2781.820312,2043.439575 2785.596436,2043.985962 2790.584961,2044.616821 
z"/>
<path fill="#025694" opacity="1.000000" stroke="none" 
	d="
M2803.029785,2041.678589 
	C2803.264648,2043.111084 2802.368896,2043.673218 2800.350586,2043.529785 
	C2799.959473,2042.026978 2800.849854,2041.354980 2803.029785,2041.678589 
z"/>
<path fill="#025694" opacity="1.000000" stroke="none" 
	d="
M2576.452148,2269.126953 
	C2577.761475,2268.807617 2578.556641,2269.796631 2578.971680,2272.054199 
	C2578.079346,2272.060791 2577.194824,2271.098389 2576.452148,2269.126953 
z"/>
<path fill="#025694" opacity="1.000000" stroke="none" 
	d="
M2578.822754,2312.279297 
	C2579.311768,2311.942139 2579.971436,2313.508057 2579.880127,2314.345459 
	C2578.419678,2314.866699 2577.934570,2314.011230 2578.822754,2312.279297 
z"/>
<path fill="#000000" opacity="1.000000" stroke="none" 
	d="
M2403.917969,1878.515381 
	C2403.341553,1879.814575 2401.912109,1880.423706 2400.767822,1880.081055 
	C2373.509766,1871.919312 2346.312012,1863.557007 2319.040771,1855.440308 
	C2296.816406,1848.825928 2274.500732,1842.520508 2252.246094,1836.007324 
	C2237.651855,1831.736328 2222.897217,1827.900513 2208.570068,1822.859253 
	C2189.946777,1816.305908 2173.599609,1821.035034 2157.386230,1830.334595 
	C2132.087646,1844.845337 2106.494873,1858.843140 2081.042480,1873.086670 
	C2068.962646,1879.846680 2056.933350,1886.695923 2044.857544,1893.463135 
	C2029.230469,1902.220337 2013.605591,1910.982422 1997.911621,1919.618652 
	C1995.647827,1920.864502 1993.002930,1921.417847 1988.824707,1922.896973 
	C1989.200928,1918.860718 1988.975708,1915.897217 1989.802124,1913.263672 
	C1996.343018,1892.417847 2003.232544,1871.680664 2009.689575,1850.809448 
	C2012.220337,1842.628906 2014.078491,1834.226196 2015.921753,1825.853760 
	C2016.689941,1822.364380 2015.750366,1820.867432 2010.849121,1813.158569 
	C2008.573730,1814.185547 2005.924561,1814.852783 2003.918457,1816.370117 
	C1988.094849,1828.338745 1972.295776,1840.344482 1956.678589,1852.580444 
	C1933.202637,1870.973755 1910.026245,1889.753296 1886.366577,1907.904297 
	C1881.793213,1911.412598 1875.785156,1913.615967 1870.093506,1914.998657 
	C1850.183716,1919.834473 1830.072754,1923.838867 1810.144653,1928.604004 
	C1802.547241,1930.420776 1795.364990,1933.965576 1787.771851,1935.809692 
	C1767.852905,1940.647705 1747.715576,1944.601685 1727.846436,1949.624756 
	C1707.341431,1954.808350 1687.088135,1960.979126 1666.648071,1966.431030 
	C1657.706421,1968.815918 1648.604736,1970.646484 1639.507446,1972.368896 
	C1637.237061,1972.798950 1634.702881,1971.835815 1632.503662,1971.541504 
	C1632.342285,1969.949219 1631.955444,1968.995483 1632.255005,1968.666260 
	C1638.489746,1961.815063 1645.033813,1955.233032 1651.059204,1948.205566 
	C1676.843262,1918.133667 1706.931641,1891.905762 1729.336792,1858.752808 
	C1738.909058,1844.588989 1751.225830,1832.302490 1761.968994,1818.901245 
	C1774.388672,1803.408569 1787.173096,1788.122559 1798.352417,1771.758545 
	C1803.779297,1763.814941 1810.407837,1759.927124 1818.889160,1757.670776 
	C1838.722656,1752.394531 1859.084229,1750.229858 1879.337280,1747.362427 
	C1896.313110,1744.958984 1913.223511,1742.074829 1930.125732,1739.186157 
	C1933.274780,1738.648193 1936.247803,1737.079468 1940.032471,1735.725220 
	C1940.275024,1730.778687 1941.372925,1726.051392 1940.445557,1721.761841 
	C1939.692139,1718.276611 1937.234131,1714.067749 1934.272949,1712.349731 
	C1923.936768,1706.352295 1913.147583,1701.100220 1902.344604,1695.955444 
	C1895.768555,1692.823608 1888.897827,1690.284790 1882.073730,1687.706665 
	C1875.187622,1685.105103 1870.956299,1679.887207 1869.923340,1673.102905 
	C1868.014893,1660.568481 1867.360962,1648.511597 1877.239868,1637.590576 
	C1891.389038,1621.949707 1904.241577,1605.125366 1917.459229,1588.655151 
	C1933.133179,1569.124390 1948.607056,1549.433105 1964.167603,1529.811401 
	C1977.341675,1513.198853 1990.353149,1496.453613 2003.754395,1480.026367 
	C2011.221558,1470.873047 2020.481201,1464.764404 2033.157715,1466.532227 
	C2052.472168,1469.225830 2067.595947,1463.356567 2080.145264,1447.526123 
	C2092.468506,1431.981689 2106.990234,1418.162109 2120.773193,1403.802612 
	C2125.817383,1398.547729 2131.536377,1393.943604 2136.903564,1388.995117 
	C2149.532227,1377.352051 2163.558350,1367.070557 2172.897949,1352.214600 
	C2174.784180,1349.214844 2177.078125,1347.110840 2182.407715,1347.976562 
	C2195.939941,1380.374268 2207.991455,1412.644043 2220.099609,1444.892578 
	C2229.643066,1470.310425 2239.354004,1495.665894 2248.773682,1521.129395 
	C2251.290283,1527.932129 2253.011719,1535.029053 2254.796631,1540.984985 
	C2253.374268,1548.247925 2248.622314,1550.726807 2243.541748,1552.583496 
	C2225.477051,1559.185669 2207.596924,1566.453369 2189.175293,1571.864136 
	C2176.127197,1575.696655 2166.600830,1582.192871 2160.608887,1594.439697 
	C2156.818359,1602.187256 2151.772949,1609.312622 2147.800537,1616.981323 
	C2142.220947,1627.752808 2144.364258,1633.082642 2155.827148,1635.306152 
	C2184.942139,1640.953979 2213.863037,1647.453735 2243.416992,1651.038696 
	C2267.592285,1653.971191 2291.406738,1659.842529 2315.406982,1664.271118 
	C2325.162842,1666.071289 2335.010498,1667.375122 2344.763184,1669.190674 
	C2347.161865,1669.637207 2349.352295,1671.203491 2351.651367,1672.260986 
	C2350.099365,1680.984009 2343.717041,1685.242432 2338.650879,1690.292847 
	C2326.880371,1702.026855 2314.619629,1713.272095 2302.938965,1725.092163 
	C2291.346191,1736.823242 2286.789551,1752.148193 2281.953613,1767.068604 
	C2286.889160,1777.131104 2295.093506,1782.739502 2303.557861,1788.003784 
	C2312.578613,1793.613892 2321.685547,1799.088867 2330.826660,1804.501953 
	C2350.502686,1816.153076 2366.810059,1831.354980 2380.349609,1849.804810 
	C2387.399902,1859.412354 2395.546143,1868.215576 2403.917969,1878.515381 
z"/>
</svg>