<svg xmlns="http://www.w3.org/2000/svg" xmlns:v="https://svgstorm.com"
viewBox = "0 0 1000 1000"
width="1000"
height="1000">
<g fill="None" fill-opacity="0.0" stroke="#FEFEFE" stroke-opacity="1.00" stroke-width="0.3"><path d="
M 0.00 1000.00 
L 1000.00 1000.00
L 1000.00 0.00
L 0.00 0.00
L 0.00 1000.00
M 465.00 452.00 
C 433.79 452.00 404.02 446.00 373.00 446.00
C 363.90 446.00 354.83 445.19 346.00 444.00
C 348.80 436.64 354.35 431.43 358.75 424.75 C 363.16 418.08 367.20 411.23 371.32 404.32 C 375.44 397.41 380.19 392.02 383.75 385.75 C 387.31 379.48 392.16 371.50 395.92 364.92 C 399.68 358.34 404.12 351.39 410.25 346.25 C 416.38 341.11 419.79 333.38 425.75 328.75 C 431.71 324.12 433.31 315.12 440.30 311.30 C 447.30 307.49 457.97 309.35 463.75 301.75 C 469.53 294.16 473.62 290.33 479.30 284.30 C 484.97 278.26 493.10 292.78 497.75 296.25 C 502.40 299.72 507.94 311.79 516.22 310.78 C 524.50 309.76 534.96 314.81 541.00 313.00
C 541.49 320.05 541.46 315.44 544.59 323.75 C 547.71 332.06 553.90 341.44 558.25 349.75 C 562.61 358.05 566.78 353.85 573.01 355.99 C 579.24 358.13 583.83 359.18 586.00 357.00
C 587.23 368.87 600.11 375.59 606.75 383.39 C 613.39 391.20 621.05 404.52 629.30 411.70 C 637.56 418.87 644.65 432.03 654.00 436.00
C 655.09 449.19 637.23 442.69 627.00 445.00 C 616.77 447.31 603.65 448.06 592.99 449.99 C 582.34 451.92 571.53 448.23 561.33 444.67 C 551.13 441.11 542.17 442.61 532.31 447.31 C 522.44 452.00 512.72 455.81 501.33 454.67 C 489.94 453.53 476.98 451.47 465.00 452.00
M 659.00 448.00 
C 658.76 448.31 659.00 449.00 659.00 449.00
C 663.21 454.36 653.42 464.06 652.03 471.02 C 650.63 477.99 643.88 487.12 641.70 494.70 C 639.51 502.27 633.25 510.49 631.68 518.68 C 630.11 526.86 628.90 537.96 628.00 547.00 C 627.10 556.05 626.16 568.16 623.00 574.00
C 622.37 576.68 621.20 581.18 620.00 584.00
C 619.75 585.58 620.35 586.67 621.00 588.00
C 613.92 596.33 596.62 606.19 588.08 593.92 C 579.54 581.64 580.00 567.46 576.67 553.33 C 573.34 539.20 573.02 522.64 569.00 509.00
C 565.03 516.66 567.73 527.25 563.00 534.00
C 562.69 542.09 563.89 550.87 566.00 558.00
C 566.96 561.26 567.63 564.14 568.00 568.00
C 569.64 584.91 574.48 599.02 572.00 616.00
C 570.76 624.48 565.31 634.01 566.00 640.00
C 557.86 643.01 556.34 651.97 550.75 658.75 C 545.15 665.52 540.03 677.35 534.68 684.68 C 529.33 692.01 521.74 700.61 519.00 709.00
C 514.13 707.79 507.16 721.14 500.75 713.25 C 494.34 705.35 491.13 699.31 484.00 697.00
C 483.91 691.22 475.47 681.78 470.00 681.00
C 470.53 673.24 460.88 666.98 456.23 660.77 C 451.58 654.56 444.35 648.26 443.02 638.98 C 441.70 629.69 435.64 621.61 433.22 612.78 C 430.81 603.94 424.72 594.88 424.00 589.00
C 421.69 592.30 422.21 581.79 419.23 578.77 C 416.24 575.75 417.41 565.64 412.00 567.00
C 412.76 562.21 411.51 556.40 412.00 551.00
C 411.83 548.72 411.42 547.16 411.00 545.00
C 410.20 540.91 409.18 536.99 408.00 533.00
C 406.03 528.87 403.15 524.82 402.00 520.00
C 399.07 525.59 402.95 534.48 400.00 540.00
C 400.48 548.81 401.30 558.23 402.00 567.00
C 402.65 570.39 403.59 574.93 403.00 579.00
C 392.65 577.85 390.97 563.06 381.00 563.00
C 380.62 557.14 376.34 548.58 373.22 542.78 C 370.10 536.97 366.38 526.27 361.00 526.00
C 362.78 517.41 355.49 513.30 352.23 504.77 C 348.97 496.25 341.66 490.54 339.03 480.98 C 336.39 471.41 344.75 457.75 340.00 449.00
C 344.60 448.67 351.75 448.28 357.00 449.00 C 362.25 449.72 367.83 451.93 373.67 451.33 C 379.51 450.73 384.02 458.74 388.00 455.00
C 398.28 467.09 411.40 465.75 426.02 463.02 C 440.65 460.30 452.50 456.33 467.00 455.00 C 481.51 453.67 503.14 456.52 502.02 473.03 C 500.90 489.53 511.28 503.12 509.00 519.00
C 508.81 519.42 509.00 520.00 509.00 520.00
C 518.45 527.23 504.36 539.56 501.70 546.70 C 499.04 553.83 488.68 561.90 487.69 570.69 C 486.71 579.49 492.63 590.82 494.33 600.67 C 496.03 610.52 499.98 620.00 500.00 631.00 C 500.02 642.00 502.04 655.25 504.00 666.00
C 506.48 651.85 503.75 635.54 506.00 621.00
C 506.29 606.38 501.08 591.11 499.01 576.99 C 496.94 562.88 508.46 554.99 514.00 543.00
C 518.45 533.38 522.15 526.68 521.00 515.00 C 519.85 503.32 519.82 492.48 520.00 482.00
C 518.37 471.76 513.52 460.21 526.02 459.02 C 538.53 457.84 544.41 455.00 557.00 455.00
C 564.39 455.00 570.34 455.24 577.03 455.98 C 583.71 456.71 593.61 455.98 600.00 455.00 C 606.39 454.02 615.22 453.56 621.00 452.00 C 626.78 450.44 636.38 449.81 641.00 448.00 C 645.62 446.19 660.89 445.60 659.00 448.00 Z"/>
</g>
<g fill="None" fill-opacity="0.0" stroke="#DEF8FB" stroke-opacity="1.00" stroke-width="0.3"><path d="
M 373.00 446.00 
C 365.42 445.27 357.13 443.05 349.00 443.00
C 355.87 431.24 365.17 419.82 371.92 407.92 C 378.67 396.01 388.66 384.53 394.30 372.30 C 399.95 360.07 408.38 346.82 419.25 338.25 C 430.12 329.68 434.42 311.55 449.00 310.00 C 463.58 308.45 472.01 294.61 482.00 284.00
C 492.48 290.23 498.37 300.91 508.25 308.75 C 518.13 316.59 541.76 307.28 543.00 326.00
C 543.11 326.47 543.00 327.00 543.00 327.00
C 549.27 331.09 550.57 338.79 554.31 345.70 C 558.04 352.60 564.41 357.25 573.00 357.00 C 581.59 356.75 586.22 364.41 591.00 370.00
C 611.58 394.08 632.83 417.93 653.00 442.00
C 635.04 442.44 617.01 442.77 599.99 446.99 C 582.97 451.21 568.02 444.70 552.00 440.00
C 536.91 437.99 527.19 452.98 512.32 453.32 C 497.45 453.67 479.91 450.20 465.00 452.00
C 476.98 451.47 489.94 453.53 501.33 454.67 C 512.72 455.81 522.44 452.00 532.31 447.31 C 542.17 442.61 551.13 441.11 561.33 444.67 C 571.53 448.23 582.34 451.92 592.99 449.99 C 603.65 448.06 616.77 447.31 627.00 445.00 C 637.23 442.69 655.09 449.19 654.00 436.00
C 644.65 432.03 637.56 418.87 629.30 411.70 C 621.05 404.52 613.39 391.20 606.75 383.39 C 600.11 375.59 587.23 368.87 586.00 357.00
C 583.83 359.18 579.24 358.13 573.01 355.99 C 566.78 353.85 562.61 358.05 558.25 349.75 C 553.90 341.44 547.71 332.06 544.59 323.75 C 541.46 315.44 541.49 320.05 541.00 313.00
C 534.96 314.81 524.50 309.76 516.22 310.78 C 507.94 311.79 502.40 299.72 497.75 296.25 C 493.10 292.78 484.97 278.26 479.30 284.30 C 473.62 290.33 469.53 294.16 463.75 301.75 C 457.97 309.35 447.30 307.49 440.30 311.30 C 433.31 315.12 431.71 324.12 425.75 328.75 C 419.79 333.38 416.38 341.11 410.25 346.25 C 404.12 351.39 399.68 358.34 395.92 364.92 C 392.16 371.50 387.31 379.48 383.75 385.75 C 380.19 392.02 375.44 397.41 371.32 404.32 C 367.20 411.23 363.16 418.08 358.75 424.75 C 354.35 431.43 348.80 436.64 346.00 444.00
C 354.83 445.19 363.90 446.00 373.00 446.00 Z"/>
</g>
<g fill="None" fill-opacity="0.0" stroke="#90D7F2" stroke-opacity="1.00" stroke-width="0.3"><path d="
M 373.00 446.00 
C 404.02 446.00 433.79 452.00 465.00 452.00
C 479.91 450.20 497.45 453.67 512.32 453.32 C 527.19 452.98 536.91 437.99 552.00 440.00
C 541.00 436.80 531.89 427.28 520.00 425.00
C 524.76 423.06 530.36 420.97 536.00 421.00
C 536.60 418.30 534.03 416.17 532.00 415.00
C 530.97 414.74 520.53 415.81 514.78 412.22 C 509.02 408.64 499.53 410.27 493.32 406.68 C 487.11 403.08 480.42 404.63 474.77 408.77 C 469.13 412.91 462.83 414.67 456.93 417.93 C 451.03 421.19 445.92 426.20 439.00 427.00
C 439.40 424.70 439.46 421.63 441.00 420.00
C 442.71 414.38 443.38 408.39 446.00 403.00
C 431.06 408.24 423.97 423.65 407.78 426.78 C 391.59 429.91 373.27 435.34 357.00 439.00
C 360.60 432.90 365.78 428.48 371.25 423.25 C 376.71 418.02 379.95 411.86 385.30 406.30 C 390.65 400.74 392.63 395.65 399.25 390.25 C 405.86 384.84 416.42 389.23 425.00 385.00 C 433.58 380.77 422.03 376.78 415.75 372.25 C 409.48 367.71 418.54 358.26 422.75 353.75 C 426.96 349.25 433.06 341.48 436.00 336.00
C 440.01 330.27 444.61 323.66 452.00 324.00 C 459.39 324.34 462.81 315.15 468.25 311.25 C 473.69 307.35 477.36 300.57 483.00 297.00
C 484.56 298.77 484.32 301.63 486.00 303.00
C 484.11 297.25 481.82 291.72 483.00 285.00
C 492.47 292.52 497.87 302.69 507.75 310.25 C 517.63 317.81 539.76 308.68 543.00 326.00
C 541.76 307.28 518.13 316.59 508.25 308.75 C 498.37 300.91 492.48 290.23 482.00 284.00
C 472.01 294.61 463.58 308.45 449.00 310.00 C 434.42 311.55 430.12 329.68 419.25 338.25 C 408.38 346.82 399.95 360.07 394.30 372.30 C 388.66 384.53 378.67 396.01 371.92 407.92 C 365.17 419.82 355.87 431.24 349.00 443.00
C 357.13 443.05 365.42 445.27 373.00 446.00 Z"/>
</g>
<g fill="None" fill-opacity="0.0" stroke="#1BAFE5" stroke-opacity="1.00" stroke-width="0.3"><path d="
M 486.00 303.00 
C 488.52 310.66 492.07 318.64 494.92 326.08 C 497.78 333.51 503.35 344.15 492.93 345.93 C 482.50 347.70 478.74 352.11 475.00 361.00
C 490.55 364.40 506.53 366.29 522.00 370.00
C 520.28 376.18 499.80 387.98 508.25 394.75 C 516.70 401.52 527.56 403.62 532.00 415.00
C 534.03 416.17 536.60 418.30 536.00 421.00
C 530.36 420.97 524.76 423.06 520.00 425.00
C 531.89 427.28 541.00 436.80 552.00 440.00
C 568.02 444.70 582.97 451.21 599.99 446.99 C 617.01 442.77 635.04 442.44 653.00 442.00
C 632.83 417.93 611.58 394.08 591.00 370.00
C 585.45 364.45 581.40 358.57 572.78 358.22 C 564.15 357.87 557.30 354.78 554.08 346.92 C 550.86 339.06 547.33 333.95 543.00 327.00
C 543.00 327.00 543.11 326.47 543.00 326.00
C 539.76 308.68 517.63 317.81 507.75 310.25 C 497.87 302.69 492.47 292.52 483.00 285.00
C 481.82 291.72 484.11 297.25 486.00 303.00 Z"/>
</g>
<g fill="None" fill-opacity="0.0" stroke="#D0F4F9" stroke-opacity="1.00" stroke-width="0.3"><path d="
M 436.00 336.00 
C 440.54 330.48 445.83 324.67 453.00 325.00 C 460.17 325.33 462.61 315.64 468.25 312.25 C 473.89 308.86 476.69 300.94 483.00 299.00
C 484.47 305.89 489.50 315.52 490.93 322.07 C 492.35 328.62 502.87 339.32 494.77 343.77 C 486.67 348.22 479.88 345.36 476.03 356.03 C 472.17 366.69 485.72 363.91 494.02 365.98 C 502.33 368.04 511.25 369.41 519.00 371.00
C 514.25 374.35 511.80 378.50 506.70 384.70 C 501.60 390.89 508.97 398.59 515.25 400.75 C 521.52 402.92 526.02 409.27 529.00 415.00
C 514.03 414.52 496.47 400.18 481.33 403.33 C 466.19 406.48 456.66 422.13 441.00 424.00
C 441.00 422.67 441.00 421.33 441.00 420.00
C 439.46 421.63 439.40 424.70 439.00 427.00
C 445.92 426.20 451.03 421.19 456.93 417.93 C 462.83 414.67 469.13 412.91 474.77 408.77 C 480.42 404.63 487.11 403.08 493.32 406.68 C 499.53 410.27 509.02 408.64 514.78 412.22 C 520.53 415.81 530.97 414.74 532.00 415.00
C 527.56 403.62 516.70 401.52 508.25 394.75 C 499.80 387.98 520.28 376.18 522.00 370.00
C 506.53 366.29 490.55 364.40 475.00 361.00
C 478.74 352.11 482.50 347.70 492.93 345.93 C 503.35 344.15 497.78 333.51 494.92 326.08 C 492.07 318.64 488.52 310.66 486.00 303.00
C 484.32 301.63 484.56 298.77 483.00 297.00
C 477.36 300.57 473.69 307.35 468.25 311.25 C 462.81 315.15 459.39 324.34 452.00 324.00 C 444.61 323.66 440.01 330.27 436.00 336.00 Z"/>
</g>
<g fill="None" fill-opacity="0.0" stroke="#FBFDFD" stroke-opacity="1.00" stroke-width="0.3"><path d="
M 436.00 336.00 
C 433.06 341.48 426.96 349.25 422.75 353.75 C 418.54 358.26 409.48 367.71 415.75 372.25 C 422.03 376.78 433.58 380.77 425.00 385.00 C 416.42 389.23 405.86 384.84 399.25 390.25 C 392.63 395.65 390.65 400.74 385.30 406.30 C 379.95 411.86 376.71 418.02 371.25 423.25 C 365.78 428.48 360.60 432.90 357.00 439.00
C 373.27 435.34 391.59 429.91 407.78 426.78 C 423.97 423.65 431.06 408.24 446.00 403.00
C 443.38 408.39 442.71 414.38 441.00 420.00
C 441.00 421.33 441.00 422.67 441.00 424.00
C 456.66 422.13 466.19 406.48 481.33 403.33 C 496.47 400.18 514.03 414.52 529.00 415.00
C 526.02 409.27 521.52 402.92 515.25 400.75 C 508.97 398.59 501.60 390.89 506.70 384.70 C 511.80 378.50 514.25 374.35 519.00 371.00
C 511.25 369.41 502.33 368.04 494.02 365.98 C 485.72 363.91 472.17 366.69 476.03 356.03 C 479.88 345.36 486.67 348.22 494.77 343.77 C 502.87 339.32 492.35 328.62 490.93 322.07 C 489.50 315.52 484.47 305.89 483.00 299.00
C 476.69 300.94 473.89 308.86 468.25 312.25 C 462.61 315.64 460.17 325.33 453.00 325.00 C 445.83 324.67 440.54 330.48 436.00 336.00 Z"/>
</g>
<g fill="None" fill-opacity="0.0" stroke="#9FE1EF" stroke-opacity="1.00" stroke-width="0.3"><path d="
M 591.00 370.00 
C 586.22 364.41 581.59 356.75 573.00 357.00 C 564.41 357.25 558.04 352.60 554.31 345.70 C 550.57 338.79 549.27 331.09 543.00 327.00
C 547.33 333.95 550.86 339.06 554.08 346.92 C 557.30 354.78 564.15 357.87 572.78 358.22 C 581.40 358.57 585.45 364.45 591.00 370.00 Z"/>
</g>
<g fill="None" fill-opacity="0.0" stroke="#C7E5EF" stroke-opacity="1.00" stroke-width="0.3"><path d="
M 557.00 455.00 
C 564.58 455.73 572.72 458.00 581.00 458.00
C 597.01 458.00 610.97 455.17 626.00 452.00
C 630.54 451.04 637.71 449.60 642.02 449.02 C 646.34 448.45 655.97 444.87 659.00 448.00
C 660.89 445.60 645.62 446.19 641.00 448.00 C 636.38 449.81 626.78 450.44 621.00 452.00 C 615.22 453.56 606.39 454.02 600.00 455.00 C 593.61 455.98 583.71 456.71 577.03 455.98 C 570.34 455.24 564.39 455.00 557.00 455.00 Z"/>
</g>
<g fill="None" fill-opacity="0.0" stroke="#045997" stroke-opacity="1.00" stroke-width="0.3"><path d="
M 626.00 452.00 
C 618.90 455.91 621.33 470.21 617.03 477.03 C 612.72 483.84 611.69 496.06 609.22 504.22 C 606.75 512.39 603.51 521.55 601.07 530.07 C 598.63 538.60 595.10 548.78 593.67 557.67 C 592.24 566.56 585.91 576.03 586.00 585.00
C 592.30 602.06 612.83 600.80 620.00 584.00
C 621.20 581.18 622.37 576.68 623.00 574.00
C 628.09 552.45 625.32 525.74 634.92 505.92 C 644.53 486.11 650.73 469.01 659.00 449.00
C 659.00 449.00 658.76 448.31 659.00 448.00
C 655.97 444.87 646.34 448.45 642.02 449.02 C 637.71 449.60 630.54 451.04 626.00 452.00 Z"/>
</g>
<g fill="None" fill-opacity="0.0" stroke="#D5F4F9" stroke-opacity="1.00" stroke-width="0.3"><path d="
M 402.00 567.00 
C 402.29 570.64 401.78 574.35 402.00 578.00
C 399.04 575.79 396.10 572.98 394.00 570.00
C 385.79 561.79 380.24 554.51 376.02 543.98 C 371.81 533.44 365.52 524.85 360.23 514.77 C 354.94 504.69 350.74 496.74 344.23 486.77 C 337.72 476.80 343.71 462.08 344.00 450.00
C 354.85 451.57 366.58 452.26 377.00 454.00
C 387.03 456.84 396.66 466.81 407.00 468.00
C 415.44 468.97 423.53 465.14 431.67 463.67 C 439.82 462.20 447.71 461.25 456.02 459.02 C 464.34 456.80 472.96 457.25 482.00 458.00 C 491.04 458.75 499.58 459.50 499.78 469.22 C 499.98 478.94 502.53 485.27 503.93 494.07 C 505.32 502.88 505.65 511.32 509.00 519.00
C 511.28 503.12 500.90 489.53 502.02 473.03 C 503.14 456.52 481.51 453.67 467.00 455.00 C 452.50 456.33 440.65 460.30 426.02 463.02 C 411.40 465.75 398.28 467.09 388.00 455.00
C 384.02 458.74 379.51 450.73 373.67 451.33 C 367.83 451.93 362.25 449.72 357.00 449.00 C 351.75 448.28 344.60 448.67 340.00 449.00
C 344.75 457.75 336.39 471.41 339.03 480.98 C 341.66 490.54 348.97 496.25 352.23 504.77 C 355.49 513.30 362.78 517.41 361.00 526.00
C 366.38 526.27 370.10 536.97 373.22 542.78 C 376.34 548.58 380.62 557.14 381.00 563.00
C 390.97 563.06 392.65 577.85 403.00 579.00
C 403.59 574.93 402.65 570.39 402.00 567.00 Z"/>
</g>
<g fill="None" fill-opacity="0.0" stroke="#CDE7F0" stroke-opacity="1.00" stroke-width="0.3"><path d="
M 623.00 574.00 
C 626.16 568.16 627.10 556.05 628.00 547.00 C 628.90 537.96 630.11 526.86 631.68 518.68 C 633.25 510.49 639.51 502.27 641.70 494.70 C 643.88 487.12 650.63 477.99 652.03 471.02 C 653.42 464.06 663.21 454.36 659.00 449.00
C 650.73 469.01 644.53 486.11 634.92 505.92 C 625.32 525.74 628.09 552.45 623.00 574.00 Z"/>
</g>
<g fill="None" fill-opacity="0.0" stroke="#0B89C8" stroke-opacity="1.00" stroke-width="0.3"><path d="
M 394.00 570.00 
C 388.55 563.62 384.38 559.58 386.99 550.99 C 389.60 542.41 386.93 532.38 388.00 524.00 C 389.07 515.62 386.41 505.92 385.02 498.98 C 383.64 492.03 380.50 481.59 380.01 475.99 C 379.52 470.40 373.89 454.80 377.00 454.00
C 366.58 452.26 354.85 451.57 344.00 450.00
C 343.71 462.08 337.72 476.80 344.23 486.77 C 350.74 496.74 354.94 504.69 360.23 514.77 C 365.52 524.85 371.81 533.44 376.02 543.98 C 380.24 554.51 385.79 561.79 394.00 570.00 Z"/>
</g>
<g fill="None" fill-opacity="0.0" stroke="#0789CA" stroke-opacity="1.00" stroke-width="0.3"><path d="
M 581.00 458.00 
C 584.31 460.20 577.55 469.45 577.23 473.23 C 576.90 477.01 572.32 485.10 571.00 489.00
C 570.67 492.65 572.00 499.49 572.00 504.00
C 572.00 530.05 577.27 561.34 586.00 585.00
C 585.91 576.03 592.24 566.56 593.67 557.67 C 595.10 548.78 598.63 538.60 601.07 530.07 C 603.51 521.55 606.75 512.39 609.22 504.22 C 611.69 496.06 612.72 483.84 617.03 477.03 C 621.33 470.21 618.90 455.91 626.00 452.00
C 610.97 455.17 597.01 458.00 581.00 458.00 Z"/>
</g>
<g fill="None" fill-opacity="0.0" stroke="#075B97" stroke-opacity="1.00" stroke-width="0.3"><path d="
M 394.00 570.00 
C 396.10 572.98 399.04 575.79 402.00 578.00
C 401.78 574.35 402.29 570.64 402.00 567.00
C 401.30 558.23 400.48 548.81 400.00 540.00
C 399.49 530.60 399.00 521.59 399.00 512.00
C 398.65 508.40 397.18 503.31 398.00 499.00
C 399.83 499.49 400.18 501.35 400.00 503.00
C 403.31 512.71 405.08 523.12 408.00 533.00
C 409.18 536.99 410.20 540.91 411.00 545.00
C 410.96 539.61 412.83 532.95 411.00 527.00 C 409.17 521.05 411.88 512.87 410.00 507.00 C 408.12 501.13 410.68 492.58 409.00 487.00 C 407.32 481.42 410.57 472.30 407.00 468.00
C 396.66 466.81 387.03 456.84 377.00 454.00
C 373.89 454.80 379.52 470.40 380.01 475.99 C 380.50 481.59 383.64 492.03 385.02 498.98 C 386.41 505.92 389.07 515.62 388.00 524.00 C 386.93 532.38 389.60 542.41 386.99 550.99 C 384.38 559.58 388.55 563.62 394.00 570.00 Z"/>
</g>
<g fill="None" fill-opacity="0.0" stroke="#025796" stroke-opacity="1.00" stroke-width="0.3"><path d="
M 520.00 482.00 
C 521.36 490.53 522.82 499.22 523.00 508.00
C 523.14 515.23 524.14 524.67 522.00 531.00
C 520.43 535.66 516.53 539.08 514.00 543.00
C 508.46 554.99 496.94 562.88 499.01 576.99 C 501.08 591.11 506.29 606.38 506.00 621.00
C 506.17 622.75 506.95 625.60 507.00 628.00
C 507.07 631.66 507.00 635.34 507.00 639.00
C 507.00 646.03 506.61 653.72 506.00 660.00
C 506.00 666.33 506.00 672.67 506.00 679.00
C 506.00 685.00 506.00 691.00 506.00 697.00
C 506.00 702.92 506.53 709.11 506.00 715.00
C 511.03 712.53 518.50 704.27 522.00 700.00
C 539.59 674.87 562.59 644.99 572.00 616.00
C 574.48 599.02 569.64 584.91 568.00 568.00
C 567.36 565.01 566.56 561.46 566.00 558.00
C 563.89 550.87 562.69 542.09 563.00 534.00
C 563.54 519.93 567.18 506.54 570.00 493.00
C 570.27 491.68 570.56 490.30 571.00 489.00
C 572.32 485.10 576.90 477.01 577.23 473.23 C 577.55 469.45 584.31 460.20 581.00 458.00
C 572.72 458.00 564.58 455.73 557.00 455.00
C 544.41 455.00 538.53 457.84 526.02 459.02 C 513.52 460.21 518.37 471.76 520.00 482.00 Z"/>
</g>
<g fill="None" fill-opacity="0.0" stroke="#1AAFE6" stroke-opacity="1.00" stroke-width="0.3"><path d="
M 407.00 468.00 
C 410.57 472.30 407.32 481.42 409.00 487.00 C 410.68 492.58 408.12 501.13 410.00 507.00 C 411.88 512.87 409.17 521.05 411.00 527.00 C 412.83 532.95 410.96 539.61 411.00 545.00
C 411.42 547.16 411.83 548.72 412.00 551.00
C 415.77 571.52 429.08 592.78 435.32 612.68 C 441.56 632.58 449.45 653.60 465.25 667.75 C 481.05 681.91 487.83 702.00 505.00 714.00
C 504.99 708.28 505.52 701.97 506.00 697.00
C 506.00 691.00 506.00 685.00 506.00 679.00
C 505.49 684.26 504.30 691.03 505.00 697.00
C 502.15 681.37 501.74 663.14 500.00 647.00 C 498.26 630.86 496.74 614.08 492.02 598.98 C 487.31 583.88 483.07 570.09 492.77 557.77 C 502.47 545.45 509.03 534.37 509.00 520.00
C 509.00 520.00 508.81 519.42 509.00 519.00
C 505.65 511.32 505.32 502.88 503.93 494.07 C 502.53 485.27 499.98 478.94 499.78 469.22 C 499.58 459.50 491.04 458.75 482.00 458.00 C 472.96 457.25 464.34 456.80 456.02 459.02 C 447.71 461.25 439.82 462.20 431.67 463.67 C 423.53 465.14 415.44 468.97 407.00 468.00 Z"/>
</g>
<g fill="None" fill-opacity="0.0" stroke="#CBE6EE" stroke-opacity="1.00" stroke-width="0.3"><path d="
M 514.00 543.00 
C 516.53 539.08 520.43 535.66 522.00 531.00
C 523.35 524.12 522.51 514.39 523.00 508.00
C 522.82 499.22 521.36 490.53 520.00 482.00
C 519.82 492.48 519.85 503.32 521.00 515.00 C 522.15 526.68 518.45 533.38 514.00 543.00 Z"/>
</g>
<g fill="None" fill-opacity="0.0" stroke="#64B5D4" stroke-opacity="1.00" stroke-width="0.3"><path d="
M 570.00 493.00 
C 569.91 495.60 571.75 501.43 572.00 504.00
C 572.00 499.49 570.67 492.65 571.00 489.00
C 570.56 490.30 570.27 491.68 570.00 493.00 Z"/>
</g>
<g fill="None" fill-opacity="0.0" stroke="#CEEEF5" stroke-opacity="1.00" stroke-width="0.3"><path d="
M 563.00 534.00 
C 567.73 527.25 565.03 516.66 569.00 509.00
C 573.02 522.64 573.34 539.20 576.67 553.33 C 580.00 567.46 579.54 581.64 588.08 593.92 C 596.62 606.19 613.92 596.33 621.00 588.00
C 620.35 586.67 619.75 585.58 620.00 584.00
C 612.83 600.80 592.30 602.06 586.00 585.00
C 577.27 561.34 572.00 530.05 572.00 504.00
C 571.75 501.43 569.91 495.60 570.00 493.00
C 567.18 506.54 563.54 519.93 563.00 534.00 Z"/>
</g>
<g fill="None" fill-opacity="0.0" stroke="#6CA3C0" stroke-opacity="1.00" stroke-width="0.3"><path d="
M 399.00 512.00 
C 399.00 509.33 400.10 504.79 400.00 503.00
C 400.18 501.35 399.83 499.49 398.00 499.00
C 397.18 503.31 398.65 508.40 399.00 512.00 Z"/>
</g>
<g fill="None" fill-opacity="0.0" stroke="#CFE7F0" stroke-opacity="1.00" stroke-width="0.3"><path d="
M 399.00 512.00 
C 399.00 521.59 399.49 530.60 400.00 540.00
C 402.95 534.48 399.07 525.59 402.00 520.00
C 403.15 524.82 406.03 528.87 408.00 533.00
C 405.08 523.12 403.31 512.71 400.00 503.00
C 400.10 504.79 399.00 509.33 399.00 512.00 Z"/>
</g>
<g fill="None" fill-opacity="0.0" stroke="#5989A6" stroke-opacity="1.00" stroke-width="0.3"><path d="
M 522.00 531.00 
C 524.14 524.67 523.14 515.23 523.00 508.00
C 522.51 514.39 523.35 524.12 522.00 531.00 Z"/>
</g>
<g fill="None" fill-opacity="0.0" stroke="#D3F5FA" stroke-opacity="1.00" stroke-width="0.3"><path d="
M 506.00 679.00 
C 506.00 672.67 506.00 666.33 506.00 660.00
C 506.00 653.00 506.00 646.00 506.00 639.00
C 506.00 635.29 506.77 630.95 507.00 628.00
C 506.95 625.60 506.17 622.75 506.00 621.00
C 503.75 635.54 506.48 651.85 504.00 666.00
C 502.04 655.25 500.02 642.00 500.00 631.00 C 499.98 620.00 496.03 610.52 494.33 600.67 C 492.63 590.82 486.71 579.49 487.69 570.69 C 488.68 561.90 499.04 553.83 501.70 546.70 C 504.36 539.56 518.45 527.23 509.00 520.00
C 509.03 534.37 502.47 545.45 492.77 557.77 C 483.07 570.09 487.31 583.88 492.02 598.98 C 496.74 614.08 498.26 630.86 500.00 647.00 C 501.74 663.14 502.15 681.37 505.00 697.00
C 504.30 691.03 505.49 684.26 506.00 679.00 Z"/>
</g>
<g fill="None" fill-opacity="0.0" stroke="#D2F2F7" stroke-opacity="1.00" stroke-width="0.3"><path d="
M 572.00 616.00 
C 562.59 644.99 539.59 674.87 522.00 700.00
C 519.97 702.90 507.13 717.20 505.00 715.00
C 504.75 714.75 505.00 714.00 505.00 714.00
C 487.83 702.00 481.05 681.91 465.25 667.75 C 449.45 653.60 441.56 632.58 435.32 612.68 C 429.08 592.78 415.77 571.52 412.00 551.00
C 411.51 556.40 412.76 562.21 412.00 567.00
C 417.41 565.64 416.24 575.75 419.23 578.77 C 422.21 581.79 421.69 592.30 424.00 589.00
C 424.72 594.88 430.81 603.94 433.22 612.78 C 435.64 621.61 441.70 629.69 443.02 638.98 C 444.35 648.26 451.58 654.56 456.23 660.77 C 460.88 666.98 470.53 673.24 470.00 681.00
C 475.47 681.78 483.91 691.22 484.00 697.00
C 491.13 699.31 494.34 705.35 500.75 713.25 C 507.16 721.14 514.13 707.79 519.00 709.00
C 521.74 700.61 529.33 692.01 534.68 684.68 C 540.03 677.35 545.15 665.52 550.75 658.75 C 556.34 651.97 557.86 643.01 566.00 640.00
C 565.31 634.01 570.76 624.48 572.00 616.00 Z"/>
</g>
<g fill="None" fill-opacity="0.0" stroke="#B1D4E4" stroke-opacity="1.00" stroke-width="0.3"><path d="
M 568.00 568.00 
C 567.63 564.14 566.96 561.26 566.00 558.00
C 566.56 561.46 567.36 565.01 568.00 568.00 Z"/>
</g>
<g fill="None" fill-opacity="0.0" stroke="#89AFC1" stroke-opacity="1.00" stroke-width="0.3"><path d="
M 506.00 639.00 
C 506.00 638.96 507.00 639.00 507.00 639.00
C 507.00 635.34 507.07 631.66 507.00 628.00
C 506.77 630.95 506.00 635.29 506.00 639.00 Z"/>
</g>
<g fill="None" fill-opacity="0.0" stroke="#4B7B94" stroke-opacity="1.00" stroke-width="0.3"><path d="
M 506.00 660.00 
C 506.61 653.72 507.00 646.03 507.00 639.00
C 507.00 639.00 506.00 638.96 506.00 639.00
C 506.00 646.00 506.00 653.00 506.00 660.00 Z"/>
</g>
<g fill="None" fill-opacity="0.0" stroke="#1F84B9" stroke-opacity="1.00" stroke-width="0.3"><path d="
M 505.00 714.00 
C 505.00 714.00 504.75 714.75 505.00 715.00
C 505.25 715.25 506.00 715.00 506.00 715.00
C 506.53 709.11 506.00 702.92 506.00 697.00
C 505.52 701.97 504.99 708.28 505.00 714.00 Z"/>
</g>
<g fill="None" fill-opacity="0.0" stroke="#8FBACE" stroke-opacity="1.00" stroke-width="0.3"><path d="
M 506.00 715.00 
C 506.00 715.00 505.25 715.25 505.00 715.00
C 507.13 717.20 519.97 702.90 522.00 700.00
C 518.50 704.27 511.03 712.53 506.00 715.00 Z"/>
</g>
<g fill="#FEFEFE" fill-opacity="1.00" stroke="None">
<path d="
M 0.00 1000.00 
L 1000.00 1000.00
L 1000.00 0.00
L 0.00 0.00
L 0.00 1000.00
M 465.00 452.00 
C 433.79 452.00 404.02 446.00 373.00 446.00
C 363.90 446.00 354.83 445.19 346.00 444.00
C 348.80 436.64 354.35 431.43 358.75 424.75 C 363.16 418.08 367.20 411.23 371.32 404.32 C 375.44 397.41 380.19 392.02 383.75 385.75 C 387.31 379.48 392.16 371.50 395.92 364.92 C 399.68 358.34 404.12 351.39 410.25 346.25 C 416.38 341.11 419.79 333.38 425.75 328.75 C 431.71 324.12 433.31 315.12 440.30 311.30 C 447.30 307.49 457.97 309.35 463.75 301.75 C 469.53 294.16 473.62 290.33 479.30 284.30 C 484.97 278.26 493.10 292.78 497.75 296.25 C 502.40 299.72 507.94 311.79 516.22 310.78 C 524.50 309.76 534.96 314.81 541.00 313.00
C 541.49 320.05 541.46 315.44 544.59 323.75 C 547.71 332.06 553.90 341.44 558.25 349.75 C 562.61 358.05 566.78 353.85 573.01 355.99 C 579.24 358.13 583.83 359.18 586.00 357.00
C 587.23 368.87 600.11 375.59 606.75 383.39 C 613.39 391.20 621.05 404.52 629.30 411.70 C 637.56 418.87 644.65 432.03 654.00 436.00
C 655.09 449.19 637.23 442.69 627.00 445.00 C 616.77 447.31 603.65 448.06 592.99 449.99 C 582.34 451.92 571.53 448.23 561.33 444.67 C 551.13 441.11 542.17 442.61 532.31 447.31 C 522.44 452.00 512.72 455.81 501.33 454.67 C 489.94 453.53 476.98 451.47 465.00 452.00
M 659.00 448.00 
C 658.76 448.31 659.00 449.00 659.00 449.00
C 663.21 454.36 653.42 464.06 652.03 471.02 C 650.63 477.99 643.88 487.12 641.70 494.70 C 639.51 502.27 633.25 510.49 631.68 518.68 C 630.11 526.86 628.90 537.96 628.00 547.00 C 627.10 556.05 626.16 568.16 623.00 574.00
C 622.37 576.68 621.20 581.18 620.00 584.00
C 619.75 585.58 620.35 586.67 621.00 588.00
C 613.92 596.33 596.62 606.19 588.08 593.92 C 579.54 581.64 580.00 567.46 576.67 553.33 C 573.34 539.20 573.02 522.64 569.00 509.00
C 565.03 516.66 567.73 527.25 563.00 534.00
C 562.69 542.09 563.89 550.87 566.00 558.00
C 566.96 561.26 567.63 564.14 568.00 568.00
C 569.64 584.91 574.48 599.02 572.00 616.00
C 570.76 624.48 565.31 634.01 566.00 640.00
C 557.86 643.01 556.34 651.97 550.75 658.75 C 545.15 665.52 540.03 677.35 534.68 684.68 C 529.33 692.01 521.74 700.61 519.00 709.00
C 514.13 707.79 507.16 721.14 500.75 713.25 C 494.34 705.35 491.13 699.31 484.00 697.00
C 483.91 691.22 475.47 681.78 470.00 681.00
C 470.53 673.24 460.88 666.98 456.23 660.77 C 451.58 654.56 444.35 648.26 443.02 638.98 C 441.70 629.69 435.64 621.61 433.22 612.78 C 430.81 603.94 424.72 594.88 424.00 589.00
C 421.69 592.30 422.21 581.79 419.23 578.77 C 416.24 575.75 417.41 565.64 412.00 567.00
C 412.76 562.21 411.51 556.40 412.00 551.00
C 411.83 548.72 411.42 547.16 411.00 545.00
C 410.20 540.91 409.18 536.99 408.00 533.00
C 406.03 528.87 403.15 524.82 402.00 520.00
C 399.07 525.59 402.95 534.48 400.00 540.00
C 400.48 548.81 401.30 558.23 402.00 567.00
C 402.65 570.39 403.59 574.93 403.00 579.00
C 392.65 577.85 390.97 563.06 381.00 563.00
C 380.62 557.14 376.34 548.58 373.22 542.78 C 370.10 536.97 366.38 526.27 361.00 526.00
C 362.78 517.41 355.49 513.30 352.23 504.77 C 348.97 496.25 341.66 490.54 339.03 480.98 C 336.39 471.41 344.75 457.75 340.00 449.00
C 344.60 448.67 351.75 448.28 357.00 449.00 C 362.25 449.72 367.83 451.93 373.67 451.33 C 379.51 450.73 384.02 458.74 388.00 455.00
C 398.28 467.09 411.40 465.75 426.02 463.02 C 440.65 460.30 452.50 456.33 467.00 455.00 C 481.51 453.67 503.14 456.52 502.02 473.03 C 500.90 489.53 511.28 503.12 509.00 519.00
C 508.81 519.42 509.00 520.00 509.00 520.00
C 518.45 527.23 504.36 539.56 501.70 546.70 C 499.04 553.83 488.68 561.90 487.69 570.69 C 486.71 579.49 492.63 590.82 494.33 600.67 C 496.03 610.52 499.98 620.00 500.00 631.00 C 500.02 642.00 502.04 655.25 504.00 666.00
C 506.48 651.85 503.75 635.54 506.00 621.00
C 506.29 606.38 501.08 591.11 499.01 576.99 C 496.94 562.88 508.46 554.99 514.00 543.00
C 518.45 533.38 522.15 526.68 521.00 515.00 C 519.85 503.32 519.82 492.48 520.00 482.00
C 518.37 471.76 513.52 460.21 526.02 459.02 C 538.53 457.84 544.41 455.00 557.00 455.00
C 564.39 455.00 570.34 455.24 577.03 455.98 C 583.71 456.71 593.61 455.98 600.00 455.00 C 606.39 454.02 615.22 453.56 621.00 452.00 C 626.78 450.44 636.38 449.81 641.00 448.00 C 645.62 446.19 660.89 445.60 659.00 448.00 Z"/>
</g>
<g fill="#DEF8FB" fill-opacity="1.00" stroke="None">
<path d="
M 373.00 446.00 
C 365.42 445.27 357.13 443.05 349.00 443.00
C 355.87 431.24 365.17 419.82 371.92 407.92 C 378.67 396.01 388.66 384.53 394.30 372.30 C 399.95 360.07 408.38 346.82 419.25 338.25 C 430.12 329.68 434.42 311.55 449.00 310.00 C 463.58 308.45 472.01 294.61 482.00 284.00
C 492.48 290.23 498.37 300.91 508.25 308.75 C 518.13 316.59 541.76 307.28 543.00 326.00
C 543.11 326.47 543.00 327.00 543.00 327.00
C 549.27 331.09 550.57 338.79 554.31 345.70 C 558.04 352.60 564.41 357.25 573.00 357.00 C 581.59 356.75 586.22 364.41 591.00 370.00
C 611.58 394.08 632.83 417.93 653.00 442.00
C 635.04 442.44 617.01 442.77 599.99 446.99 C 582.97 451.21 568.02 444.70 552.00 440.00
C 536.91 437.99 527.19 452.98 512.32 453.32 C 497.45 453.67 479.91 450.20 465.00 452.00
C 476.98 451.47 489.94 453.53 501.33 454.67 C 512.72 455.81 522.44 452.00 532.31 447.31 C 542.17 442.61 551.13 441.11 561.33 444.67 C 571.53 448.23 582.34 451.92 592.99 449.99 C 603.65 448.06 616.77 447.31 627.00 445.00 C 637.23 442.69 655.09 449.19 654.00 436.00
C 644.65 432.03 637.56 418.87 629.30 411.70 C 621.05 404.52 613.39 391.20 606.75 383.39 C 600.11 375.59 587.23 368.87 586.00 357.00
C 583.83 359.18 579.24 358.13 573.01 355.99 C 566.78 353.85 562.61 358.05 558.25 349.75 C 553.90 341.44 547.71 332.06 544.59 323.75 C 541.46 315.44 541.49 320.05 541.00 313.00
C 534.96 314.81 524.50 309.76 516.22 310.78 C 507.94 311.79 502.40 299.72 497.75 296.25 C 493.10 292.78 484.97 278.26 479.30 284.30 C 473.62 290.33 469.53 294.16 463.75 301.75 C 457.97 309.35 447.30 307.49 440.30 311.30 C 433.31 315.12 431.71 324.12 425.75 328.75 C 419.79 333.38 416.38 341.11 410.25 346.25 C 404.12 351.39 399.68 358.34 395.92 364.92 C 392.16 371.50 387.31 379.48 383.75 385.75 C 380.19 392.02 375.44 397.41 371.32 404.32 C 367.20 411.23 363.16 418.08 358.75 424.75 C 354.35 431.43 348.80 436.64 346.00 444.00
C 354.83 445.19 363.90 446.00 373.00 446.00 Z"/>
</g>
<g fill="#90D7F2" fill-opacity="1.00" stroke="None">
<path d="
M 373.00 446.00 
C 404.02 446.00 433.79 452.00 465.00 452.00
C 479.91 450.20 497.45 453.67 512.32 453.32 C 527.19 452.98 536.91 437.99 552.00 440.00
C 541.00 436.80 531.89 427.28 520.00 425.00
C 524.76 423.06 530.36 420.97 536.00 421.00
C 536.60 418.30 534.03 416.17 532.00 415.00
C 530.97 414.74 520.53 415.81 514.78 412.22 C 509.02 408.64 499.53 410.27 493.32 406.68 C 487.11 403.08 480.42 404.63 474.77 408.77 C 469.13 412.91 462.83 414.67 456.93 417.93 C 451.03 421.19 445.92 426.20 439.00 427.00
C 439.40 424.70 439.46 421.63 441.00 420.00
C 442.71 414.38 443.38 408.39 446.00 403.00
C 431.06 408.24 423.97 423.65 407.78 426.78 C 391.59 429.91 373.27 435.34 357.00 439.00
C 360.60 432.90 365.78 428.48 371.25 423.25 C 376.71 418.02 379.95 411.86 385.30 406.30 C 390.65 400.74 392.63 395.65 399.25 390.25 C 405.86 384.84 416.42 389.23 425.00 385.00 C 433.58 380.77 422.03 376.78 415.75 372.25 C 409.48 367.71 418.54 358.26 422.75 353.75 C 426.96 349.25 433.06 341.48 436.00 336.00
C 440.01 330.27 444.61 323.66 452.00 324.00 C 459.39 324.34 462.81 315.15 468.25 311.25 C 473.69 307.35 477.36 300.57 483.00 297.00
C 484.56 298.77 484.32 301.63 486.00 303.00
C 484.11 297.25 481.82 291.72 483.00 285.00
C 492.47 292.52 497.87 302.69 507.75 310.25 C 517.63 317.81 539.76 308.68 543.00 326.00
C 541.76 307.28 518.13 316.59 508.25 308.75 C 498.37 300.91 492.48 290.23 482.00 284.00
C 472.01 294.61 463.58 308.45 449.00 310.00 C 434.42 311.55 430.12 329.68 419.25 338.25 C 408.38 346.82 399.95 360.07 394.30 372.30 C 388.66 384.53 378.67 396.01 371.92 407.92 C 365.17 419.82 355.87 431.24 349.00 443.00
C 357.13 443.05 365.42 445.27 373.00 446.00 Z"/>
</g>
<g fill="#1BAFE5" fill-opacity="1.00" stroke="None">
<path d="
M 486.00 303.00 
C 488.52 310.66 492.07 318.64 494.92 326.08 C 497.78 333.51 503.35 344.15 492.93 345.93 C 482.50 347.70 478.74 352.11 475.00 361.00
C 490.55 364.40 506.53 366.29 522.00 370.00
C 520.28 376.18 499.80 387.98 508.25 394.75 C 516.70 401.52 527.56 403.62 532.00 415.00
C 534.03 416.17 536.60 418.30 536.00 421.00
C 530.36 420.97 524.76 423.06 520.00 425.00
C 531.89 427.28 541.00 436.80 552.00 440.00
C 568.02 444.70 582.97 451.21 599.99 446.99 C 617.01 442.77 635.04 442.44 653.00 442.00
C 632.83 417.93 611.58 394.08 591.00 370.00
C 585.45 364.45 581.40 358.57 572.78 358.22 C 564.15 357.87 557.30 354.78 554.08 346.92 C 550.86 339.06 547.33 333.95 543.00 327.00
C 543.00 327.00 543.11 326.47 543.00 326.00
C 539.76 308.68 517.63 317.81 507.75 310.25 C 497.87 302.69 492.47 292.52 483.00 285.00
C 481.82 291.72 484.11 297.25 486.00 303.00 Z"/>
</g>
<g fill="#D0F4F9" fill-opacity="1.00" stroke="None">
<path d="
M 436.00 336.00 
C 440.54 330.48 445.83 324.67 453.00 325.00 C 460.17 325.33 462.61 315.64 468.25 312.25 C 473.89 308.86 476.69 300.94 483.00 299.00
C 484.47 305.89 489.50 315.52 490.93 322.07 C 492.35 328.62 502.87 339.32 494.77 343.77 C 486.67 348.22 479.88 345.36 476.03 356.03 C 472.17 366.69 485.72 363.91 494.02 365.98 C 502.33 368.04 511.25 369.41 519.00 371.00
C 514.25 374.35 511.80 378.50 506.70 384.70 C 501.60 390.89 508.97 398.59 515.25 400.75 C 521.52 402.92 526.02 409.27 529.00 415.00
C 514.03 414.52 496.47 400.18 481.33 403.33 C 466.19 406.48 456.66 422.13 441.00 424.00
C 441.00 422.67 441.00 421.33 441.00 420.00
C 439.46 421.63 439.40 424.70 439.00 427.00
C 445.92 426.20 451.03 421.19 456.93 417.93 C 462.83 414.67 469.13 412.91 474.77 408.77 C 480.42 404.63 487.11 403.08 493.32 406.68 C 499.53 410.27 509.02 408.64 514.78 412.22 C 520.53 415.81 530.97 414.74 532.00 415.00
C 527.56 403.62 516.70 401.52 508.25 394.75 C 499.80 387.98 520.28 376.18 522.00 370.00
C 506.53 366.29 490.55 364.40 475.00 361.00
C 478.74 352.11 482.50 347.70 492.93 345.93 C 503.35 344.15 497.78 333.51 494.92 326.08 C 492.07 318.64 488.52 310.66 486.00 303.00
C 484.32 301.63 484.56 298.77 483.00 297.00
C 477.36 300.57 473.69 307.35 468.25 311.25 C 462.81 315.15 459.39 324.34 452.00 324.00 C 444.61 323.66 440.01 330.27 436.00 336.00 Z"/>
</g>
<g fill="#FBFDFD" fill-opacity="1.00" stroke="None">
<path d="
M 436.00 336.00 
C 433.06 341.48 426.96 349.25 422.75 353.75 C 418.54 358.26 409.48 367.71 415.75 372.25 C 422.03 376.78 433.58 380.77 425.00 385.00 C 416.42 389.23 405.86 384.84 399.25 390.25 C 392.63 395.65 390.65 400.74 385.30 406.30 C 379.95 411.86 376.71 418.02 371.25 423.25 C 365.78 428.48 360.60 432.90 357.00 439.00
C 373.27 435.34 391.59 429.91 407.78 426.78 C 423.97 423.65 431.06 408.24 446.00 403.00
C 443.38 408.39 442.71 414.38 441.00 420.00
C 441.00 421.33 441.00 422.67 441.00 424.00
C 456.66 422.13 466.19 406.48 481.33 403.33 C 496.47 400.18 514.03 414.52 529.00 415.00
C 526.02 409.27 521.52 402.92 515.25 400.75 C 508.97 398.59 501.60 390.89 506.70 384.70 C 511.80 378.50 514.25 374.35 519.00 371.00
C 511.25 369.41 502.33 368.04 494.02 365.98 C 485.72 363.91 472.17 366.69 476.03 356.03 C 479.88 345.36 486.67 348.22 494.77 343.77 C 502.87 339.32 492.35 328.62 490.93 322.07 C 489.50 315.52 484.47 305.89 483.00 299.00
C 476.69 300.94 473.89 308.86 468.25 312.25 C 462.61 315.64 460.17 325.33 453.00 325.00 C 445.83 324.67 440.54 330.48 436.00 336.00 Z"/>
</g>
<g fill="#9FE1EF" fill-opacity="1.00" stroke="None">
<path d="
M 591.00 370.00 
C 586.22 364.41 581.59 356.75 573.00 357.00 C 564.41 357.25 558.04 352.60 554.31 345.70 C 550.57 338.79 549.27 331.09 543.00 327.00
C 547.33 333.95 550.86 339.06 554.08 346.92 C 557.30 354.78 564.15 357.87 572.78 358.22 C 581.40 358.57 585.45 364.45 591.00 370.00 Z"/>
</g>
<g fill="#C7E5EF" fill-opacity="1.00" stroke="None">
<path d="
M 557.00 455.00 
C 564.58 455.73 572.72 458.00 581.00 458.00
C 597.01 458.00 610.97 455.17 626.00 452.00
C 630.54 451.04 637.71 449.60 642.02 449.02 C 646.34 448.45 655.97 444.87 659.00 448.00
C 660.89 445.60 645.62 446.19 641.00 448.00 C 636.38 449.81 626.78 450.44 621.00 452.00 C 615.22 453.56 606.39 454.02 600.00 455.00 C 593.61 455.98 583.71 456.71 577.03 455.98 C 570.34 455.24 564.39 455.00 557.00 455.00 Z"/>
</g>
<g fill="#045997" fill-opacity="1.00" stroke="None">
<path d="
M 626.00 452.00 
C 618.90 455.91 621.33 470.21 617.03 477.03 C 612.72 483.84 611.69 496.06 609.22 504.22 C 606.75 512.39 603.51 521.55 601.07 530.07 C 598.63 538.60 595.10 548.78 593.67 557.67 C 592.24 566.56 585.91 576.03 586.00 585.00
C 592.30 602.06 612.83 600.80 620.00 584.00
C 621.20 581.18 622.37 576.68 623.00 574.00
C 628.09 552.45 625.32 525.74 634.92 505.92 C 644.53 486.11 650.73 469.01 659.00 449.00
C 659.00 449.00 658.76 448.31 659.00 448.00
C 655.97 444.87 646.34 448.45 642.02 449.02 C 637.71 449.60 630.54 451.04 626.00 452.00 Z"/>
</g>
<g fill="#D5F4F9" fill-opacity="1.00" stroke="None">
<path d="
M 402.00 567.00 
C 402.29 570.64 401.78 574.35 402.00 578.00
C 399.04 575.79 396.10 572.98 394.00 570.00
C 385.79 561.79 380.24 554.51 376.02 543.98 C 371.81 533.44 365.52 524.85 360.23 514.77 C 354.94 504.69 350.74 496.74 344.23 486.77 C 337.72 476.80 343.71 462.08 344.00 450.00
C 354.85 451.57 366.58 452.26 377.00 454.00
C 387.03 456.84 396.66 466.81 407.00 468.00
C 415.44 468.97 423.53 465.14 431.67 463.67 C 439.82 462.20 447.71 461.25 456.02 459.02 C 464.34 456.80 472.96 457.25 482.00 458.00 C 491.04 458.75 499.58 459.50 499.78 469.22 C 499.98 478.94 502.53 485.27 503.93 494.07 C 505.32 502.88 505.65 511.32 509.00 519.00
C 511.28 503.12 500.90 489.53 502.02 473.03 C 503.14 456.52 481.51 453.67 467.00 455.00 C 452.50 456.33 440.65 460.30 426.02 463.02 C 411.40 465.75 398.28 467.09 388.00 455.00
C 384.02 458.74 379.51 450.73 373.67 451.33 C 367.83 451.93 362.25 449.72 357.00 449.00 C 351.75 448.28 344.60 448.67 340.00 449.00
C 344.75 457.75 336.39 471.41 339.03 480.98 C 341.66 490.54 348.97 496.25 352.23 504.77 C 355.49 513.30 362.78 517.41 361.00 526.00
C 366.38 526.27 370.10 536.97 373.22 542.78 C 376.34 548.58 380.62 557.14 381.00 563.00
C 390.97 563.06 392.65 577.85 403.00 579.00
C 403.59 574.93 402.65 570.39 402.00 567.00 Z"/>
</g>
<g fill="#CDE7F0" fill-opacity="1.00" stroke="None">
<path d="
M 623.00 574.00 
C 626.16 568.16 627.10 556.05 628.00 547.00 C 628.90 537.96 630.11 526.86 631.68 518.68 C 633.25 510.49 639.51 502.27 641.70 494.70 C 643.88 487.12 650.63 477.99 652.03 471.02 C 653.42 464.06 663.21 454.36 659.00 449.00
C 650.73 469.01 644.53 486.11 634.92 505.92 C 625.32 525.74 628.09 552.45 623.00 574.00 Z"/>
</g>
<g fill="#0B89C8" fill-opacity="1.00" stroke="None">
<path d="
M 394.00 570.00 
C 388.55 563.62 384.38 559.58 386.99 550.99 C 389.60 542.41 386.93 532.38 388.00 524.00 C 389.07 515.62 386.41 505.92 385.02 498.98 C 383.64 492.03 380.50 481.59 380.01 475.99 C 379.52 470.40 373.89 454.80 377.00 454.00
C 366.58 452.26 354.85 451.57 344.00 450.00
C 343.71 462.08 337.72 476.80 344.23 486.77 C 350.74 496.74 354.94 504.69 360.23 514.77 C 365.52 524.85 371.81 533.44 376.02 543.98 C 380.24 554.51 385.79 561.79 394.00 570.00 Z"/>
</g>
<g fill="#0789CA" fill-opacity="1.00" stroke="None">
<path d="
M 581.00 458.00 
C 584.31 460.20 577.55 469.45 577.23 473.23 C 576.90 477.01 572.32 485.10 571.00 489.00
C 570.67 492.65 572.00 499.49 572.00 504.00
C 572.00 530.05 577.27 561.34 586.00 585.00
C 585.91 576.03 592.24 566.56 593.67 557.67 C 595.10 548.78 598.63 538.60 601.07 530.07 C 603.51 521.55 606.75 512.39 609.22 504.22 C 611.69 496.06 612.72 483.84 617.03 477.03 C 621.33 470.21 618.90 455.91 626.00 452.00
C 610.97 455.17 597.01 458.00 581.00 458.00 Z"/>
</g>
<g fill="#075B97" fill-opacity="1.00" stroke="None">
<path d="
M 394.00 570.00 
C 396.10 572.98 399.04 575.79 402.00 578.00
C 401.78 574.35 402.29 570.64 402.00 567.00
C 401.30 558.23 400.48 548.81 400.00 540.00
C 399.49 530.60 399.00 521.59 399.00 512.00
C 398.65 508.40 397.18 503.31 398.00 499.00
C 399.83 499.49 400.18 501.35 400.00 503.00
C 403.31 512.71 405.08 523.12 408.00 533.00
C 409.18 536.99 410.20 540.91 411.00 545.00
C 410.96 539.61 412.83 532.95 411.00 527.00 C 409.17 521.05 411.88 512.87 410.00 507.00 C 408.12 501.13 410.68 492.58 409.00 487.00 C 407.32 481.42 410.57 472.30 407.00 468.00
C 396.66 466.81 387.03 456.84 377.00 454.00
C 373.89 454.80 379.52 470.40 380.01 475.99 C 380.50 481.59 383.64 492.03 385.02 498.98 C 386.41 505.92 389.07 515.62 388.00 524.00 C 386.93 532.38 389.60 542.41 386.99 550.99 C 384.38 559.58 388.55 563.62 394.00 570.00 Z"/>
</g>
<g fill="#025796" fill-opacity="1.00" stroke="None">
<path d="
M 520.00 482.00 
C 521.36 490.53 522.82 499.22 523.00 508.00
C 523.14 515.23 524.14 524.67 522.00 531.00
C 520.43 535.66 516.53 539.08 514.00 543.00
C 508.46 554.99 496.94 562.88 499.01 576.99 C 501.08 591.11 506.29 606.38 506.00 621.00
C 506.17 622.75 506.95 625.60 507.00 628.00
C 507.07 631.66 507.00 635.34 507.00 639.00
C 507.00 646.03 506.61 653.72 506.00 660.00
C 506.00 666.33 506.00 672.67 506.00 679.00
C 506.00 685.00 506.00 691.00 506.00 697.00
C 506.00 702.92 506.53 709.11 506.00 715.00
C 511.03 712.53 518.50 704.27 522.00 700.00
C 539.59 674.87 562.59 644.99 572.00 616.00
C 574.48 599.02 569.64 584.91 568.00 568.00
C 567.36 565.01 566.56 561.46 566.00 558.00
C 563.89 550.87 562.69 542.09 563.00 534.00
C 563.54 519.93 567.18 506.54 570.00 493.00
C 570.27 491.68 570.56 490.30 571.00 489.00
C 572.32 485.10 576.90 477.01 577.23 473.23 C 577.55 469.45 584.31 460.20 581.00 458.00
C 572.72 458.00 564.58 455.73 557.00 455.00
C 544.41 455.00 538.53 457.84 526.02 459.02 C 513.52 460.21 518.37 471.76 520.00 482.00 Z"/>
</g>
<g fill="#1AAFE6" fill-opacity="1.00" stroke="None">
<path d="
M 407.00 468.00 
C 410.57 472.30 407.32 481.42 409.00 487.00 C 410.68 492.58 408.12 501.13 410.00 507.00 C 411.88 512.87 409.17 521.05 411.00 527.00 C 412.83 532.95 410.96 539.61 411.00 545.00
C 411.42 547.16 411.83 548.72 412.00 551.00
C 415.77 571.52 429.08 592.78 435.32 612.68 C 441.56 632.58 449.45 653.60 465.25 667.75 C 481.05 681.91 487.83 702.00 505.00 714.00
C 504.99 708.28 505.52 701.97 506.00 697.00
C 506.00 691.00 506.00 685.00 506.00 679.00
C 505.49 684.26 504.30 691.03 505.00 697.00
C 502.15 681.37 501.74 663.14 500.00 647.00 C 498.26 630.86 496.74 614.08 492.02 598.98 C 487.31 583.88 483.07 570.09 492.77 557.77 C 502.47 545.45 509.03 534.37 509.00 520.00
C 509.00 520.00 508.81 519.42 509.00 519.00
C 505.65 511.32 505.32 502.88 503.93 494.07 C 502.53 485.27 499.98 478.94 499.78 469.22 C 499.58 459.50 491.04 458.75 482.00 458.00 C 472.96 457.25 464.34 456.80 456.02 459.02 C 447.71 461.25 439.82 462.20 431.67 463.67 C 423.53 465.14 415.44 468.97 407.00 468.00 Z"/>
</g>
<g fill="#CBE6EE" fill-opacity="1.00" stroke="None">
<path d="
M 514.00 543.00 
C 516.53 539.08 520.43 535.66 522.00 531.00
C 523.35 524.12 522.51 514.39 523.00 508.00
C 522.82 499.22 521.36 490.53 520.00 482.00
C 519.82 492.48 519.85 503.32 521.00 515.00 C 522.15 526.68 518.45 533.38 514.00 543.00 Z"/>
</g>
<g fill="#64B5D4" fill-opacity="1.00" stroke="None">
<path d="
M 570.00 493.00 
C 569.91 495.60 571.75 501.43 572.00 504.00
C 572.00 499.49 570.67 492.65 571.00 489.00
C 570.56 490.30 570.27 491.68 570.00 493.00 Z"/>
</g>
<g fill="#CEEEF5" fill-opacity="1.00" stroke="None">
<path d="
M 563.00 534.00 
C 567.73 527.25 565.03 516.66 569.00 509.00
C 573.02 522.64 573.34 539.20 576.67 553.33 C 580.00 567.46 579.54 581.64 588.08 593.92 C 596.62 606.19 613.92 596.33 621.00 588.00
C 620.35 586.67 619.75 585.58 620.00 584.00
C 612.83 600.80 592.30 602.06 586.00 585.00
C 577.27 561.34 572.00 530.05 572.00 504.00
C 571.75 501.43 569.91 495.60 570.00 493.00
C 567.18 506.54 563.54 519.93 563.00 534.00 Z"/>
</g>
<g fill="#6CA3C0" fill-opacity="1.00" stroke="None">
<path d="
M 399.00 512.00 
C 399.00 509.33 400.10 504.79 400.00 503.00
C 400.18 501.35 399.83 499.49 398.00 499.00
C 397.18 503.31 398.65 508.40 399.00 512.00 Z"/>
</g>
<g fill="#CFE7F0" fill-opacity="1.00" stroke="None">
<path d="
M 399.00 512.00 
C 399.00 521.59 399.49 530.60 400.00 540.00
C 402.95 534.48 399.07 525.59 402.00 520.00
C 403.15 524.82 406.03 528.87 408.00 533.00
C 405.08 523.12 403.31 512.71 400.00 503.00
C 400.10 504.79 399.00 509.33 399.00 512.00 Z"/>
</g>
<g fill="#5989A6" fill-opacity="1.00" stroke="None">
<path d="
M 522.00 531.00 
C 524.14 524.67 523.14 515.23 523.00 508.00
C 522.51 514.39 523.35 524.12 522.00 531.00 Z"/>
</g>
<g fill="#D3F5FA" fill-opacity="1.00" stroke="None">
<path d="
M 506.00 679.00 
C 506.00 672.67 506.00 666.33 506.00 660.00
C 506.00 653.00 506.00 646.00 506.00 639.00
C 506.00 635.29 506.77 630.95 507.00 628.00
C 506.95 625.60 506.17 622.75 506.00 621.00
C 503.75 635.54 506.48 651.85 504.00 666.00
C 502.04 655.25 500.02 642.00 500.00 631.00 C 499.98 620.00 496.03 610.52 494.33 600.67 C 492.63 590.82 486.71 579.49 487.69 570.69 C 488.68 561.90 499.04 553.83 501.70 546.70 C 504.36 539.56 518.45 527.23 509.00 520.00
C 509.03 534.37 502.47 545.45 492.77 557.77 C 483.07 570.09 487.31 583.88 492.02 598.98 C 496.74 614.08 498.26 630.86 500.00 647.00 C 501.74 663.14 502.15 681.37 505.00 697.00
C 504.30 691.03 505.49 684.26 506.00 679.00 Z"/>
</g>
<g fill="#D2F2F7" fill-opacity="1.00" stroke="None">
<path d="
M 572.00 616.00 
C 562.59 644.99 539.59 674.87 522.00 700.00
C 519.97 702.90 507.13 717.20 505.00 715.00
C 504.75 714.75 505.00 714.00 505.00 714.00
C 487.83 702.00 481.05 681.91 465.25 667.75 C 449.45 653.60 441.56 632.58 435.32 612.68 C 429.08 592.78 415.77 571.52 412.00 551.00
C 411.51 556.40 412.76 562.21 412.00 567.00
C 417.41 565.64 416.24 575.75 419.23 578.77 C 422.21 581.79 421.69 592.30 424.00 589.00
C 424.72 594.88 430.81 603.94 433.22 612.78 C 435.64 621.61 441.70 629.69 443.02 638.98 C 444.35 648.26 451.58 654.56 456.23 660.77 C 460.88 666.98 470.53 673.24 470.00 681.00
C 475.47 681.78 483.91 691.22 484.00 697.00
C 491.13 699.31 494.34 705.35 500.75 713.25 C 507.16 721.14 514.13 707.79 519.00 709.00
C 521.74 700.61 529.33 692.01 534.68 684.68 C 540.03 677.35 545.15 665.52 550.75 658.75 C 556.34 651.97 557.86 643.01 566.00 640.00
C 565.31 634.01 570.76 624.48 572.00 616.00 Z"/>
</g>
<g fill="#B1D4E4" fill-opacity="1.00" stroke="None">
<path d="
M 568.00 568.00 
C 567.63 564.14 566.96 561.26 566.00 558.00
C 566.56 561.46 567.36 565.01 568.00 568.00 Z"/>
</g>
<g fill="#89AFC1" fill-opacity="1.00" stroke="None">
<path d="
M 506.00 639.00 
C 506.00 638.96 507.00 639.00 507.00 639.00
C 507.00 635.34 507.07 631.66 507.00 628.00
C 506.77 630.95 506.00 635.29 506.00 639.00 Z"/>
</g>
<g fill="#4B7B94" fill-opacity="1.00" stroke="None">
<path d="
M 506.00 660.00 
C 506.61 653.72 507.00 646.03 507.00 639.00
C 507.00 639.00 506.00 638.96 506.00 639.00
C 506.00 646.00 506.00 653.00 506.00 660.00 Z"/>
</g>
<g fill="#1F84B9" fill-opacity="1.00" stroke="None">
<path d="
M 505.00 714.00 
C 505.00 714.00 504.75 714.75 505.00 715.00
C 505.25 715.25 506.00 715.00 506.00 715.00
C 506.53 709.11 506.00 702.92 506.00 697.00
C 505.52 701.97 504.99 708.28 505.00 714.00 Z"/>
</g>
<g fill="#8FBACE" fill-opacity="1.00" stroke="None">
<path d="
M 506.00 715.00 
C 506.00 715.00 505.25 715.25 505.00 715.00
C 507.13 717.20 519.97 702.90 522.00 700.00
C 518.50 704.27 511.03 712.53 506.00 715.00 Z"/>
</g>
</svg>